<?xml version="1.0" standalone="no"?>
<!DOCTYPE svg PUBLIC "-//W3C//DTD SVG 1.1//EN" "http://www.w3.org/Graphics/SVG/1.1/DTD/svg11.dtd" >
<svg xmlns="http://www.w3.org/2000/svg" xmlns:xlink="http://www.w3.org/1999/xlink" version="1.1">
<metadata></metadata>
<defs>
<font id="uni_sansbold" horiz-adv-x="484" >
<font-face units-per-em="1000" ascent="756" descent="-244" />
<missing-glyph horiz-adv-x="192" />
<glyph unicode="fi" horiz-adv-x="560" d="M353 645q0 35 23.5 59t58.5 24q37 0 60.5 -23.5t23.5 -59.5t-23.5 -60t-60.5 -24q-34 0 -58 24.5t-24 59.5zM368 0h139v519h-139v-519zM291 710v-130q-45 9 -71.5 -9.5t-26.5 -51.5v-25h92v-127h-92v-367h-139v527q0 93 65 143t172 40z" />
<glyph unicode="fl" horiz-adv-x="598" d="M591 121v-119q-107 -16 -164.5 41t-57.5 149v516h139v-516q0 -31 21 -51t62 -20zM290 710v-130q-45 9 -71.5 -9.5t-26.5 -51.5v-25h92v-127h-92v-367h-139v527q0 93 65 143t172 40z" />
<glyph unicode=" "  horiz-adv-x="192" />
<glyph unicode="&#x09;" horiz-adv-x="192" />
<glyph unicode="&#xa0;" horiz-adv-x="192" />
<glyph unicode="!" horiz-adv-x="256" d="M57 192v519h141v-519h-141zM42 76q0 36 24.5 61.5t60.5 25.5q37 0 62 -25.5t25 -61.5t-25 -61t-62 -25q-36 0 -60.5 25t-24.5 61z" />
<glyph unicode="&#x22;" horiz-adv-x="414" d="M194 707l-20 -271h-122v271h142zM372 707l-19 -271h-123v271h142z" />
<glyph unicode="#" horiz-adv-x="648" d="M585 316l-28 -133h-109q-38 -131 -53 -184h-137l52 184h-72l-53 -184h-138l54 184h-75l26 133h88q6 16 15 48h-96l29 135h107q10 31 51 174h138l-51 -174h72l51 174h140l-53 -174h81l-38 -135h-85l-13 -48h97zM264 307h96l18 66h-97z" />
<glyph unicode="$" horiz-adv-x="566" d="M238 -70v62q-62 7 -118 41t-95 92l111 85q33 -52 102 -71v154q-208 40 -206 222q5 82 63 134t143 66v61h95v-60q126 -17 196 -122l-121 -81q-30 45 -75 60v-149q99 -22 155 -73t52 -156q-7 -80 -65 -132t-142 -67v-66h-95zM182 510v-1q0 -45 56 -64v127q-53 -17 -56 -62z M392 205q3 48 -59 69v-136q56 17 59 67z" />
<glyph unicode="%" horiz-adv-x="731" d="M78 16l462 714l94 -57l-463 -710zM323 537q0 -82 -42 -131t-107 -49q-71 0 -109.5 46.5t-38.5 135.5q0 81 41.5 129.5t106.5 48.5q71 0 110 -47t39 -133zM219 537q0 76 -47 76q-48 0 -48 -75q0 -76 48 -76q47 0 47 75zM706 176q0 -82 -42 -131t-107 -49 q-71 0 -109.5 46.5t-38.5 135.5q0 81 41.5 129.5t106.5 48.5q71 0 110 -47t39 -133zM602 176q0 76 -47 76q-48 0 -48 -75q0 -76 48 -76q47 0 47 75z" />
<glyph unicode="&#x26;" horiz-adv-x="667" d="M510 354l89 -86l-71 -83l139 -170h-171l-50 61q-75 -80 -185 -80q-98 0 -163.5 60.5t-65.5 159.5q0 110 110 186q-48 68 -48 129q0 84 58.5 133.5t139.5 49.5q74 0 128.5 -48.5t54.5 -124.5q0 -105 -104 -169l78 -91zM288 588q-23 0 -39 -15.5t-16 -38.5q0 -33 38 -78 q28 15 47.5 37.5t19.5 45.5q0 22 -14 35.5t-36 13.5zM346 173l-111 126q-64 -43 -64 -83q0 -42 29.5 -66.5t71.5 -19t74 42.5z" />
<glyph unicode="'" horiz-adv-x="236" d="M192 707l-14 -271h-126v271h140z" />
<glyph unicode="(" horiz-adv-x="307" d="M191 793l101 -68q-129 -165 -129.5 -377t127.5 -395l-104 -71q-153 215 -152 475t157 436z" />
<glyph unicode=")" horiz-adv-x="307" d="M14 725l101 68q156 -176 157 -436t-152 -475l-104 71q128 183 127.5 395t-129.5 377z" />
<glyph unicode="*" horiz-adv-x="460" d="M398 636l37 -126l-116 -22l80 -93l-103 -78l-66 108l-62 -108l-107 77l78 93l-113 25l36 126l114 -47l-10 118h130l-12 -117z" />
<glyph unicode="+" horiz-adv-x="570" d="M219 397v184h140v-184h182v-141h-182v-186h-140v186h-190v141h190z" />
<glyph unicode="," horiz-adv-x="266" d="M225 111l-92 -233h-141l77 233h156z" />
<glyph unicode="-" horiz-adv-x="395" d="M345 363v-141h-295v141h295z" />
<glyph unicode="." horiz-adv-x="241" d="M35 81q0 36 24.5 61t60.5 25t61 -25t25 -61q0 -37 -25 -62t-61 -25t-60.5 25t-24.5 62z" />
<glyph unicode="/" horiz-adv-x="476" d="M456 716l-303 -770l-133 48l305 768z" />
<glyph unicode="0" horiz-adv-x="603" d="M302 -10q-101 0 -178.5 55.5t-77.5 158.5v299q0 71 40 121.5t96 72t120 21.5q37 0 73 -8t69.5 -25t58.5 -41.5t40 -61t15 -79.5v-299q0 -103 -77.5 -158.5t-178.5 -55.5zM187 503v-299q3 -37 38.5 -57.5t76.5 -20.5t76.5 20.5t38.5 57.5v299q-2 30 -26 50.5t-56.5 25 t-65 0t-56.5 -25t-26 -50.5z" />
<glyph unicode="1" horiz-adv-x="355" d="M299 0h-138v499l-67 -58l-92 78l181 191h116v-710z" />
<glyph unicode="2" horiz-adv-x="552" d="M137 508l-105 71q39 66 105 102.5t136 36.5q73 0 127.5 -27t80.5 -71.5t31.5 -97.5t-17.5 -109t-69 -101l-181 -177l1 -4l98 9l169 1v-141h-458l-33 86l304 328q35 37 42 76.5t-18.5 66.5t-78.5 27q-39 0 -76.5 -20.5t-57.5 -55.5z" />
<glyph unicode="3" horiz-adv-x="567" d="M131 514l-87 81q38 58 101.5 91t133.5 32q97 -1 161 -62.5t64 -145.5q0 -75 -69 -130q49 -26 74 -74t25 -98q0 -88 -71.5 -152.5t-177.5 -64.5q-186 0 -267 151l109 80q24 -40 62.5 -62.5t77.5 -22.5q74 0 105.5 41t5.5 83t-94 46h-99v125h99q31 0 52.5 20.5t21.5 51.5 t-26.5 50t-62.5 19q-90 0 -138 -59z" />
<glyph unicode="4" horiz-adv-x="567" d="M532 288v-129h-60v-159h-141v159h-260l-67 99l342 451h126v-421h60zM316 472l-141 -194h159l3 149l16 99l-6 1z" />
<glyph unicode="5" horiz-adv-x="564" d="M43 134l108 72q22 -35 56 -54.5t68 -19.5q32 0 57.5 12t39 31.5t20 43.5t0.5 47.5t-18.5 43.5t-37.5 32.5t-57 12.5q-38 1 -67.5 -8.5t-80.5 -37.5l-82 -2v401h442v-139h-306v-101q66 23 123.5 19t106.5 -28q51 -25 82.5 -71t39.5 -98t-5 -106t-44 -97t-84 -70.5 t-119 -26.5q-169 0 -242 144z" />
<glyph unicode="6" horiz-adv-x="596" d="M551 574l-124 -53q-18 38 -58.5 54.5t-80 11.5t-70 -28t-30.5 -57v-102q44 45 109.5 54.5t124.5 -12.5t101.5 -74.5t42.5 -120.5v-42q0 -102 -76 -158.5t-182 -56.5q-107 -1 -184.5 56t-77.5 159v298q0 102 77.5 159t184.5 56q163 0 243 -144zM425 206v40q0 36 -37 56.5 t-81.5 20.5t-81.5 -20.5t-37 -56.5v-40q0 -36 37 -56.5t81.5 -20.5t81.5 20.5t37 56.5z" />
<glyph unicode="7" horiz-adv-x="534" d="M30 709h460l41 -82l-339 -627h-159l308 572h-311v137z" />
<glyph unicode="8" horiz-adv-x="618" d="M316 -10h-15q-117 0 -191.5 63.5t-75.5 175.5q0 42 23 85.5t71 74.5q-37 23 -53.5 63.5t-13.5 79t19 68.5q28 57 88.5 87.5t132.5 30.5h15q100 0 169 -51.5t69 -153.5q0 -33 -17 -67t-50 -54q50 -25 73.5 -69t23.5 -94q-2 -112 -77 -175.5t-191 -63.5zM317 596h-16 q-40 0 -69 -20.5t-29 -55.5q0 -39 29.5 -58t71.5 -19q43 0 76.5 19t33.5 58q0 35 -28.5 55.5t-68.5 20.5zM301 129h15q46 0 83.5 25t37.5 68q0 49 -34 73t-87 24h-15q-53 0 -87 -24t-34 -73q0 -43 37.5 -68t83.5 -25z" />
<glyph unicode="9" horiz-adv-x="596" d="M46 134l124 53q18 -38 58.5 -54.5t80 -11.5t70 28t30.5 57v102q-45 -44 -111 -53.5t-124.5 12t-100.5 74t-42 120.5v42q0 102 76 158.5t182 56.5q106 1 183.5 -56t78.5 -159v-298q0 -102 -77.5 -159t-184.5 -56q-163 0 -243 144zM172 502v-40q0 -36 37 -56.5t81.5 -20.5 t81.5 20.5t37 56.5v40q0 36 -37 56.5t-81.5 20.5t-81.5 -20.5t-37 -56.5z" />
<glyph unicode=":" horiz-adv-x="266" d="M47 404q0 36 25 60.5t61 24.5t61 -24.5t25 -60.5t-25 -61.5t-61 -25.5t-61 25.5t-25 61.5zM47 93q0 37 25 61.5t61 24.5t61 -24.5t25 -61.5q0 -36 -25 -61t-61 -25t-61 25t-25 61z" />
<glyph unicode=";" horiz-adv-x="275" d="M53 392q0 36 24.5 60.5t62.5 24.5q36 0 60 -24.5t24 -60.5q0 -37 -24 -62t-60 -25q-38 0 -62.5 25t-24.5 62zM227 137l-84 -232h-125l56 232h153z" />
<glyph unicode="&#x3c;" horiz-adv-x="425" d="M180 295l197 -108v-162l-354 224v92l354 227v-161z" />
<glyph unicode="=" horiz-adv-x="529" d="M478 452v-137h-427v137h427zM478 268v-136h-427v136h427z" />
<glyph unicode="&#x3e;" horiz-adv-x="426" d="M402 341v-92l-354 -224v162l197 108l-197 112v161z" />
<glyph unicode="?" horiz-adv-x="481" d="M112 536l-90 76q81 106 200 106q65 0 116.5 -27.5t78.5 -70t34 -93t-8.5 -96t-58.5 -80t-106 -43.5l-10 -113h-121l-9 207q28 -7 62 -7q66 0 94.5 50.5t0 98.5t-97.5 42q-53 -5 -85 -50zM133 69q0 34 23 56.5t56 22.5t56 -22.5t23 -56.5q0 -33 -23 -56t-56 -23t-56 23 t-23 56z" />
<glyph unicode="@" horiz-adv-x="770" d="M596 518l-54 -291q71 39 93 115.5t-9 149.5q-34 87 -135 114q-154 40 -254 -62q-77 -78 -87.5 -198t53.5 -194q83 -96 246 -49l23 -94q-68 -19 -133 -18t-122 29t-99 71.5t-64 109.5t-17 143q5 81 40 156t96.5 130.5t146.5 77t190 -4.5q69 -17 122 -58t83 -98 q45 -86 25.5 -196.5t-92.5 -175.5q-25 -23 -61 -37t-77 -12.5t-71 24.5q-44 -29 -96 -21t-90 43q-73 66 -58 179q13 96 79 160q75 71 161 39q31 -12 60 -38l22 25zM441 256l31 148q-31 49 -72 47t-69 -44q-22 -33 -22.5 -79.5t22.5 -75.5q23 -24 57 -21.5t53 25.5z" />
<glyph unicode="A" horiz-adv-x="634" d="M386 708l254 -708h-154l-62 162h-211l-59 -162h-157l248 708h141zM290 450l-40 -153h136l-45 154l-22 101h-7z" />
<glyph unicode="B" horiz-adv-x="624" d="M564 501q0 -34 -17 -69.5t-50 -54.5q61 -30 82.5 -83t12.5 -114q-11 -79 -71 -129.5t-174 -50.5h-285v709h280q96 0 159 -54.5t63 -153.5zM209 431h133q48 0 69.5 33.5t2.5 67t-72 33.5h-133v-134zM209 143h133q49 0 77 25.5t28 55.5t-27.5 55.5t-77.5 25.5h-133v-162z " />
<glyph unicode="C" horiz-adv-x="584" d="M447 209l127 -71q-44 -72 -111.5 -110t-140.5 -38q-112 0 -195 62.5t-83 172.5v258q0 110 82.5 172.5t195.5 62.5q75 0 143.5 -39t102.5 -113l-118 -64q-20 38 -58 57.5t-81 18.5q-50 -1 -85.5 -27t-35.5 -68v-258q0 -42 34.5 -67t83.5 -26q42 -1 80.5 18.5t58.5 58.5z " />
<glyph unicode="D" horiz-adv-x="636" d="M62 708h260q114 0 192 -58.5t78 -171.5v-252q0 -112 -77.5 -169t-192.5 -57h-260v708zM209 148h113q53 0 87.5 19t34.5 59v252q0 41 -35 61.5t-87 20.5h-113v-412z" />
<glyph unicode="E" horiz-adv-x="583" d="M210 565v-139h305v-143h-305v-140h332v-143h-480v709h480v-144h-332z" />
<glyph unicode="F" horiz-adv-x="569" d="M210 565v-156h290v-145h-290v-264h-148v708h479v-143h-331z" />
<glyph unicode="G" horiz-adv-x="628" d="M569 568l-119 -63q-16 39 -53 58.5t-81 19.5q-51 0 -88.5 -26.5t-37.5 -71.5v-258q0 -45 38.5 -69.5t92.5 -24.5t93.5 24.5t39.5 69.5v34h-161v143h305v-177q0 -111 -82 -173.5t-194 -63.5q-72 -1 -134 24.5t-103 81t-41 131.5v258q0 110 82 171.5t194 61.5q79 0 145 -36 t104 -114z" />
<glyph unicode="H" horiz-adv-x="679" d="M209 290v-290h-147v708h147v-281h261v281h147v-708h-147v290h-261z" />
<glyph unicode="I" horiz-adv-x="271" d="M209 708v-708h-147v708h147z" />
<glyph unicode="J" horiz-adv-x="598" d="M226 708h315v-486q0 -109 -80.5 -170.5t-188.5 -61.5q-97 0 -174 61t-91 174l142 28q10 -56 46 -87.5t80 -31.5q47 0 82.5 23.5t35.5 64.5v347h-167v139z" />
<glyph unicode="K" horiz-adv-x="633" d="M209 413l252 295h179l-304 -347l304 -361h-182l-221 263l-28 -27v-236h-147v708h147v-295z" />
<glyph unicode="L" horiz-adv-x="530" d="M62 0v708h147v-560h306v-148h-453z" />
<glyph unicode="M" horiz-adv-x="778" d="M542 320l-97 -227h-110l-98 228l-34 97h-10l16 -137v-281h-147v708h154l172 -407l174 407h154v-708h-147v282l18 137h-11z" />
<glyph unicode="N" horiz-adv-x="679" d="M481 194l10 2q-18 103 -21 150v362h147v-708h-157l-216 372l-43 96l-10 -2l19 -121v-345h-148v708h145l224 -386z" />
<glyph unicode="O" horiz-adv-x="666" d="M43 225v257q0 76 43 131t107.5 80.5t139.5 24.5q118 0 204 -62.5t86 -173.5v-257q0 -111 -86 -173.5t-204 -62.5q-75 0 -139.5 25t-107.5 80.5t-43 130.5zM189 482v-257q0 -42 42.5 -65.5t101.5 -23.5q59 1 101 24t42 65v257q0 43 -43 67t-101 23q-57 0 -100 -24t-43 -66 z" />
<glyph unicode="P" horiz-adv-x="617" d="M62 0v708h279q55 0 100.5 -17t75 -45t50 -65t24.5 -77.5t-0.5 -81t-25 -77t-50 -65t-74.5 -45t-99 -16.5h-134v-219h-146zM208 357h133q51 0 80 31.5t29 70t-29 70t-80 31.5h-133v-203z" />
<glyph unicode="Q" horiz-adv-x="666" d="M573 -33l-62 67q-78 -45 -178 -45q-75 0 -139.5 25t-107.5 80.5t-43 130.5v257q0 76 43 131t107.5 80.5t139.5 24.5q118 0 204 -62.5t86 -173.5v-257q0 -73 -41 -128l64 -68zM333 136q45 0 78 5l-63 68l73 62l55 -59v13v257q0 43 -43 67t-101 23q-57 0 -100 -24t-43 -66 v-257q0 -43 43 -66.5t101 -22.5z" />
<glyph unicode="R" horiz-adv-x="632" d="M463 0l-201 259h-52v-259h-148v708h279q113 0 181.5 -55.5t71.5 -170.5q0 -181 -161 -213l211 -269h-181zM210 393h131q106 0 106 88q0 82 -106 79h-131v-167z" />
<glyph unicode="S" horiz-adv-x="568" d="M26 125l111 85q23 -37 66 -57.5t84 -21t72.5 18.5t33.5 55q2 41 -33 58.5t-103 26.5q-226 35 -224 225q6 96 81 150t177 54q156 0 239 -125l-121 -81q-44 67 -118 67q-45 0 -75.5 -17.5t-32.5 -52.5v-1q0 -25 19 -41.5t34 -21t57 -13.5l12 -3q53 -10 91 -23.5t74.5 -39 t55 -69t15.5 -103.5q-9 -95 -87.5 -150t-181.5 -55q-71 0 -136.5 34.5t-109.5 100.5z" />
<glyph unicode="T" horiz-adv-x="584" d="M569 561h-203v-561h-148v561h-203v148h554v-148z" />
<glyph unicode="U" horiz-adv-x="668" d="M204 708v-475q0 -47 38 -73t91 -26q55 0 93 26t38 73v475h148v-475q0 -115 -82 -179t-197 -64q-113 0 -195 64t-82 179v475h148z" />
<glyph unicode="V" horiz-adv-x="642" d="M352 316l139 393h157l-256 -709h-142l-256 709h157l134 -393l29 -146h11z" />
<glyph unicode="W" horiz-adv-x="920" d="M208 0l-205 708h152l101 -370l22 -165h9l24 166q21 69 46.5 141t43.5 130h119l86 -273l29 -171h9l19 171l103 371h151l-204 -708h-144l-91 273l-16 85h-8q-1 -6 -3 -14.5t-6 -27.5t-7 -32l-3 -12l-83 -272h-144z" />
<glyph unicode="X" horiz-adv-x="631" d="M633 0h-180l-142 250l-131 -250h-181l209 353l-207 355h179l131 -252l143 252h179l-224 -356z" />
<glyph unicode="Y" horiz-adv-x="628" d="M387 0h-147v271l-246 437h169l150 -296l150 296h171l-247 -437v-271z" />
<glyph unicode="Z" horiz-adv-x="597" d="M37 708h499l41 -67l-353 -509h339v-132h-510l-35 67l353 505h-334v136z" />
<glyph unicode="[" horiz-adv-x="307" d="M196 577v-551h75v-135h-217v822h217v-136h-75z" />
<glyph unicode="\" horiz-adv-x="477" d="M324 -57l-305 772l133 47l305 -774z" />
<glyph unicode="]" horiz-adv-x="307" d="M110 24v557h-73v133h216v-822h-216v132h73z" />
<glyph unicode="^" horiz-adv-x="616" d="M348 693l240 -299h-167l-117 144l-114 -144h-161l234 299h85z" />
<glyph unicode="_" horiz-adv-x="602" d="M552 8v-139h-503v139h503z" />
<glyph unicode="`" horiz-adv-x="257" d="M162 756h-130l-117 142h164z" />
<glyph unicode="a" d="M27 154q0 84 53.5 126.5t130.5 42.5q46 0 92 -16v37q0 72 -80 72q-28 0 -59 -14t-50 -34l-68 73q74 85 187 87q85 0 144.5 -47.5t59.5 -136.5v-316q-101 -38 -195 -38q-107 0 -161 43.5t-54 120.5zM299 104v105q-32 12 -63 12q-38 0 -57.5 -17t-19.5 -46q0 -61 81 -61 q32 0 59 7z" />
<glyph unicode="b" horiz-adv-x="509" d="M192 707v-197q40 18 86 18q76 -1 133.5 -49t57.5 -127v-183q-7 -94 -66 -136.5t-149 -42.5q-100 0 -202 39v678h140zM192 404v-300q26 -10 57 -11t56 16.5t25 46.5v203q-3 28 -28.5 43.5t-56 15t-53.5 -13.5z" />
<glyph unicode="c" horiz-adv-x="468" d="M328 171l122 -40q-25 -73 -81.5 -107t-120.5 -34q-84 0 -146 48t-62 135v171q0 87 62 135.5t146 48.5q65 0 121 -33.5t75 -106.5l-119 -37q-8 26 -29.5 39t-47.5 13q-28 0 -48.5 -16t-20.5 -42v-171q0 -27 20.5 -43t48.5 -16q26 0 48.5 14t31.5 42z" />
<glyph unicode="d" horiz-adv-x="509" d="M457 707v-678q-102 -39 -202 -39q-90 0 -149 42.5t-66 136.5v183q0 79 57.5 127t134.5 49q46 0 85 -18v197h140zM317 104v300q-23 13 -53.5 13.5t-56 -15t-28.5 -43.5v-203q1 -29 26 -46.5t55.5 -16.5t56.5 11z" />
<glyph unicode="e" d="M339 154l91 -66q-28 -51 -78 -74.5t-103 -23.5q-85 0 -147 48.5t-62 135.5v171q0 88 62.5 135.5t148.5 47.5q84 0 142 -44.5t58 -132.5v-152h-271v-23q0 -29 23 -45t55 -16q57 0 81 39zM320 302v47q0 26 -20 40t-48 14q-29 0 -50.5 -14.5t-21.5 -40.5v-46h140z" />
<glyph unicode="f" horiz-adv-x="305" d="M291 710v-130q-45 9 -71.5 -9.5t-26.5 -51.5v-25h92v-127h-92v-367h-139v527q0 93 65 143t172 40z" />
<glyph unicode="g" horiz-adv-x="506" d="M61 -134l64 83q39 -37 105 -37q86 0 86 100q-37 -22 -84 -22q-79 0 -134.5 44.5t-55.5 123.5v196q0 89 60 131.5t152 42.5q110 0 200 -44v-483q0 -99 -60.5 -152t-153.5 -53q-107 0 -179 70zM314 115v293q-26 13 -59 13t-56 -17t-23 -47v-197q4 -28 27.5 -43t55.5 -15 q31 0 55 13z" />
<glyph unicode="h" horiz-adv-x="518" d="M193 708v-196q39 16 84 16q79 0 135 -49t56 -137v-342h-138v343q0 30 -25.5 45.5t-57.5 14t-54 -14.5v-388h-139v708h139z" />
<glyph unicode="i" horiz-adv-x="247" d="M39 644q0 35 23.5 59t58.5 24q37 0 60.5 -23.5t23.5 -59.5t-23.5 -60t-60.5 -24q-34 0 -58 24.5t-24 59.5zM54 519h139v-519h-139v519z" />
<glyph unicode="j" horiz-adv-x="247" d="M39 643q0 36 24 60t59 24t59.5 -24t24.5 -60q0 -35 -24.5 -59t-59.5 -24q-34 0 -58.5 24t-24.5 59zM-16 -76v-107q103 -21 156 30.5t53 143.5v528h-139v-528q0 -74 -70 -67z" />
<glyph unicode="k" horiz-adv-x="510" d="M193 322l150 196h162l-206 -250q31 -41 102.5 -132.5t104.5 -135.5h-161l-143 189l-9 -8v-181h-139v707h139v-385z" />
<glyph unicode="l" horiz-adv-x="278" d="M271 111v-119q-20 -2 -29 -2q-96 0 -144.5 53.5t-48.5 138.5v526h139v-526q0 -31 21 -51t62 -20z" />
<glyph unicode="m" horiz-adv-x="753" d="M52 0v464q34 30 84.5 47.5t100.5 16.5q101 -2 139 -64q52 64 134 64q78 0 135.5 -46.5t57.5 -129.5v-352h-138v357q0 22 -18 34t-43 12t-43.5 -12t-18.5 -33v-358h-133v354q0 22 -21.5 35.5t-49.5 13.5q-33 -2 -50 -20v-383h-136z" />
<glyph unicode="n" horiz-adv-x="515" d="M53 0v483q92 45 187 45q62 0 111 -18t82 -62t33 -109v-339h-138v334q0 34 -23 51.5t-56 17.5q-32 0 -57 -14v-389h-139z" />
<glyph unicode="o" horiz-adv-x="494" d="M40 174v169q0 87 61.5 135.5t146.5 49.5q84 -1 145.5 -49.5t61.5 -135.5v-169q0 -88 -61 -135.5t-146 -48.5q-85 1 -146.5 48.5t-61.5 135.5zM248 403q-27 0 -48 -14t-21 -37v-181q0 -24 21.5 -40t47.5 -16q25 0 46.5 16t21.5 40v181q0 23 -21 37t-47 14z" />
<glyph unicode="p" horiz-adv-x="510" d="M52 -190v679q102 39 202 39q215 0 215 -173v-189q0 -86 -56.5 -130.5t-136.5 -45.5q-45 0 -84 18v-198h-140zM192 410v-301q21 -12 54 -12q36 0 60 17.5t24 51.5v196q0 30 -23 45t-59 15q-32 0 -56 -12z" />
<glyph unicode="q" horiz-adv-x="510" d="M318 -190v198q-39 -18 -82 -18q-87 0 -141 47t-54 129v171q0 94 62.5 142.5t152.5 48.5q100 0 202 -39v-679h-140zM318 109v298q-23 14 -54 14q-33 0 -58.5 -20.5t-25.5 -51.5v-180q0 -36 26.5 -54t61.5 -18q29 0 50 12z" />
<glyph unicode="r" horiz-adv-x="340" d="M252 528q29 0 73 -10v-112q-48 13 -92.5 -4.5t-44.5 -59.5v-342h-139v344q0 87 62 135.5t141 48.5z" />
<glyph unicode="s" horiz-adv-x="424" d="M25 78l66 90q61 -58 125 -58q31 0 42 23q10 23 -3 42t-47 24q-82 14 -125.5 61.5t-44.5 107.5q-1 65 47 112.5t130 47.5q98 0 165 -54l-69 -95q-13 13 -37.5 22.5t-46.5 9.5q-18 0 -31.5 -10.5t-15.5 -31.5t22.5 -37t46.5 -20q149 -38 149 -152q0 -81 -54.5 -125.5 t-132.5 -44.5q-120 0 -186 88z" />
<glyph unicode="t" horiz-adv-x="319" d="M296 121v-114q-106 -35 -176 11t-69 164v451h128l10 -115h92v-127h-92v-208q0 -44 25.5 -58.5t81.5 -3.5z" />
<glyph unicode="u" horiz-adv-x="516" d="M464 518v-490q-106 -38 -196 -38q-96 0 -157 45t-61 147v336h139v-328q0 -43 24.5 -64t62.5 -21q26 0 50 9v404h138z" />
<glyph unicode="v" horiz-adv-x="504" d="M275 257l78 261h149l-185 -518h-131l-184 518h148l78 -261l22 -134h3z" />
<glyph unicode="w" horiz-adv-x="701" d="M334 187l-41 -187h-130l-157 518h137l58 -209l16 -135h2l15 126l66 218h101l64 -217l15 -127h2l18 136l54 208h139l-153 -518h-130l-43 187l-16 141h-2z" />
<glyph unicode="x" horiz-adv-x="519" d="M511 518l-172 -258q25 -36 87 -130.5t87 -129.5h-165l-67 108l-20 53h-7l-23 -55q-60 -95 -67 -106h-157l168 259q-8 12 -27.5 44.5t-54 85.5t-86.5 129h157l72 -118l19 -49h6l18 49q7 10 29.5 50t39.5 68h163z" />
<glyph unicode="y" horiz-adv-x="517" d="M463 518v-514q0 -100 -59.5 -154t-155.5 -54q-112 0 -181 69l66 87q40 -38 99 -38q47 0 72.5 22t24.5 71q-51 -17 -88 -17q-87 0 -138.5 44.5t-51.5 126.5v357h134v-355q0 -61 80 -61q30 0 58 16v400h140z" />
<glyph unicode="z" horiz-adv-x="453" d="M40 518h357l30 -49l-216 -350h209v-119h-369l-30 50l215 349h-196v119z" />
<glyph unicode="{" horiz-adv-x="332" d="M231 581v-18v-132q0 -40 -20 -77.5t-50 -51.5q70 -29 70 -128v-135q0 -13 -4 -15h68v-132h-76q-73 0 -101.5 36.5t-28.5 108.5v120q0 79 -58 79v133q58 0 58 79v120q0 71 31.5 108.5t107.5 37.5h67v-133h-64z" />
<glyph unicode="|" horiz-adv-x="247" d="M193 -146h-139v858h139v-858z" />
<glyph unicode="}" horiz-adv-x="326" d="M40 714h53q47 0 76.5 -9.5t43.5 -31t18.5 -44.5t4.5 -61v-120q0 -79 59 -79v-133q-59 0 -59 -79v-120q0 -73 -30.5 -109t-114.5 -36h-51v132h50q5 0 5 15v135q-1 43 17 78t55 51q-31 20 -52 55t-20 73v132q0 18 -3 18h-52v133z" />
<glyph unicode="~" horiz-adv-x="487" d="M374 371l79 -66q-60 -106 -146 -106q-50 0 -95 40q-21 21 -43.5 18t-47.5 -35l-87 73q67 97 140 97q48 0 108 -46q27 -19 47.5 -13t44.5 38z" />
<glyph unicode="&#xa1;" horiz-adv-x="249" d="M210 443q0 -37 -24.5 -61.5t-61.5 -24.5t-61 24t-24 62q0 36 24 60.5t61 24.5t61.5 -24.5t24.5 -60.5zM195 327v-496h-141v496h141z" />
<glyph unicode="&#xa2;" horiz-adv-x="474" d="M300 569v-51q115 -26 143 -134l-119 -37q-8 23 -24 35v-247q18 15 27 40l122 -40q-38 -109 -149 -135v-53h-90v50q-73 10 -122 56.5t-49 123.5v163q0 77 49 123.5t122 57.5v48h90zM178 341v-163q0 -34 32 -51v263q-32 -17 -32 -49z" />
<glyph unicode="&#xa3;" horiz-adv-x="525" d="M123 135v168h-85v132h85v67q0 38 10.5 74t33.5 69t66 53t101 20q96 0 160 -88l-81 -75q-41 47 -92.5 29.5t-56.5 -77.5v-72h134v-132h-134v-168h224v-135h-450v135h85z" />
<glyph unicode="&#xa4;" horiz-adv-x="613" d="M40 164l48 49q-32 54 -32 124q0 66 33 124l-2 2l-48 46l92 100l54 -54q52 31 121 31q67 0 123 -32l54 54l91 -99l-50 -49q33 -53 33 -123q0 -71 -33 -125l2 -2v1l48 -46l-91 -99l-54 54q-53 -32 -123 -32q-67 0 -122 31l-4 -5l-49 -47zM193 336q0 -46 33.5 -79.5 t79.5 -33.5t79 33.5t33 79.5q0 48 -33 81.5t-79 33.5q-47 0 -80 -33.5t-33 -81.5z" />
<glyph unicode="&#xa5;" horiz-adv-x="678" d="M19 708h169l150 -296l150 296h171l-190 -336h70l-20 -100l-107 -1v-37h127l-19 -98h-108v-136h-147v136h-126l20 98h106l-1 38h-125l20 100h49z" />
<glyph unicode="&#xa6;" horiz-adv-x="252" d="M196 324h-140v348h140v-348zM196 -119h-140v381h140v-381z" />
<glyph unicode="&#xa7;" horiz-adv-x="477" d="M30 30l107 59q33 -65 100 -65q22 0 39 13t17 34q0 15 -15.5 30t-32.5 24t-48 24q-38 17 -57.5 27.5t-46.5 31t-39.5 47.5t-12.5 62q0 81 72 111q-52 34 -52 98q0 81 57.5 130t135.5 49q104 0 166 -106l-101 -54q-17 30 -45.5 35t-49.5 -12t-21 -42q0 -19 23 -35.5 t67 -36.5q35 -17 54.5 -28t45.5 -31.5t38.5 -47t12.5 -59.5q0 -31 -16.5 -59.5t-46.5 -44.5q36 -37 47.5 -79.5t-0.5 -80t-38.5 -68t-67 -48.5t-85.5 -18q-63 0 -120 36.5t-87 103.5zM209 277l80 -38q28 16 30 34.5t-12.5 32.5t-40.5 26v1l-53 30q-46 -21 -46 -41 q0 -23 42 -45z" />
<glyph unicode="&#xa8;" horiz-adv-x="393" d="M-14 830q0 33 22.5 55t54.5 22q31 0 54 -22.5t23 -54.5q0 -31 -23 -53t-54 -22q-32 0 -54.5 22t-22.5 53zM203 830q0 33 22 55t55 22t55.5 -22t22.5 -55q0 -32 -22.5 -53.5t-55.5 -21.5t-55 21.5t-22 53.5z" />
<glyph unicode="&#xa9;" horiz-adv-x="785" d="M33 351q0 148 106 253.5t254 105.5t253 -105.5t105 -253.5t-105 -253.5t-253 -105.5q-149 0 -254.5 105.5t-105.5 253.5zM136 351q0 -107 75 -182t182 -75q106 0 180.5 75t74.5 182t-74.5 181.5t-180.5 74.5q-107 0 -182 -74.5t-75 -181.5zM201 404v-111q0 -80 57 -123 t135 -43q64 0 118.5 31t72.5 96l-96 36q-7 -26 -27.5 -42.5t-45.5 -19t-49 2.5t-41 21.5t-20 39.5v113q3 23 20 39.5t41 21.5t49 2.5t45.5 -19t27.5 -42.5l94 36q-18 65 -71.5 96t-117.5 31q-78 0 -135 -43t-57 -123z" />
<glyph unicode="&#xaa;" horiz-adv-x="382" d="M98 574l-56 52q38 59 108.5 73.5t127 -22t56.5 -110.5v-233q-54 -15 -102 -19t-95 3.5t-74.5 40t-27.5 87.5q0 42 20 70.5t49.5 38.5t62.5 12.5t59 -8.5q-2 39 -49.5 42t-78.5 -27zM219 405v66q-21 11 -48 3t-28 -31q0 -28 24.5 -36.5t51.5 -1.5z" />
<glyph unicode="&#xab;" horiz-adv-x="559" d="M178 518l120 -72l-107 -157q11 -16 33 -49.5t40.5 -61t33.5 -48.5l-121 -71l-153 230zM406 518l121 -72l-108 -159l7 -9q5 -7 19 -27t37.5 -53t45.5 -66l-122 -73l-153 230z" />
<glyph unicode="&#xac;" horiz-adv-x="584" d="M45 282v139h485v-282h-139v143h-346z" />
<glyph unicode="&#xad;" horiz-adv-x="401" d="M348 316v-141h-295v141h295z" />
<glyph unicode="&#xae;" horiz-adv-x="785" d="M33 351q0 148 106 253.5t254 105.5t253 -105.5t105 -253.5t-105 -253.5t-253 -105.5q-149 0 -254.5 105.5t-105.5 253.5zM140 351q0 -105 74.5 -180t180.5 -75q104 0 178.5 75t74.5 180t-74 179.5t-179 74.5q-106 0 -180.5 -74t-74.5 -180zM247 169v358h162 q57 0 93 -30.5t43 -69.5t-11.5 -78.5t-59.5 -55.5l86 -124h-116l-78 117h-21v-117h-98zM345 366h61q25 0 35 19t-0.5 38t-35.5 19h-60v-76z" />
<glyph unicode="&#xaf;" horiz-adv-x="321" d="M9 776v103h269v-103h-269z" />
<glyph unicode="&#xb0;" horiz-adv-x="371" d="M186 398q-65 0 -111 46t-46 111q0 66 45.5 111t111.5 45q65 0 110.5 -45t45.5 -111q0 -64 -46 -110.5t-110 -46.5zM186 507q20 0 34 13.5t14 33.5t-14 34.5t-34 14.5t-34 -14.5t-14 -34.5t14 -33.5t34 -13.5z" />
<glyph unicode="&#xb1;" horiz-adv-x="538" d="M198 481v143h140v-143h153v-140h-153v-142h-140v142h-150v140h150zM492 147v-139h-445v139h445z" />
<glyph unicode="&#xb2;" horiz-adv-x="399" d="M131 532l-92 79q55 87 154 87q76 0 116 -42.5t40 -106.5q0 -73 -116 -172h120v-131h-291l-28 76l157 176q35 40 15 62q-17 18 -45 3q-18 -10 -30 -31z" />
<glyph unicode="&#xb3;" horiz-adv-x="383" d="M136 532h50q19 0 22 21q3 25 -19 33l-15 2q-33 -2 -51 -25l-76 64q33 35 60 51.5t64 18.5q42 2 78.5 -17t56 -49t15 -68.5t-38.5 -71.5q39 -18 54.5 -52t7 -69t-33.5 -63q-38 -42 -96 -53t-111.5 13.5t-78.5 76.5l91 57q11 -20 35 -26.5t43.5 3t19.5 29.5q0 9 -7.5 17.5 t-18.5 7.5h-51v100z" />
<glyph unicode="&#xb4;" horiz-adv-x="262" d="M320 898l-129 -142h-136l95 142h170z" />
<glyph unicode="&#xb5;" horiz-adv-x="521" d="M347 -1l-11 34q-23 -41 -71.5 -42.5t-71.5 44.5v-222h-141v703h142v-314q0 -47 33.5 -65t66.5 1t33 62v316h142l2 -518z" />
<glyph unicode="&#xb6;" horiz-adv-x="649" d="M246 -90v325q-104 6 -163 75.5t-59 160.5q0 97 64.5 167t179.5 70h321v-798h-141v666h-60v-666h-142z" />
<glyph unicode="&#xb7;" horiz-adv-x="249" d="M39 307q0 37 24.5 62t62.5 25q36 0 60 -25t24 -62q0 -36 -24 -60.5t-60 -24.5q-38 0 -62.5 24.5t-24.5 60.5z" />
<glyph unicode="&#xb8;" horiz-adv-x="251" d="M-24 -202l28 64q34 -22 60.5 -19.5t33.5 24.5q6 19 -11.5 34t-62.5 15l46 91h100l-26 -56q47 -4 65.5 -41.5t1.5 -82.5q-21 -56 -90 -69t-145 40z" />
<glyph unicode="&#xb9;" horiz-adv-x="300" d="M62 500l-50 70l126 137h107v-441h-134v262z" />
<glyph unicode="&#xba;" horiz-adv-x="420" d="M210 298q-69 0 -120.5 39.5t-51.5 109.5v120q0 70 51.5 109.5t120.5 39.5t120.5 -39.5t51.5 -109.5v-120q0 -70 -51.5 -109.5t-120.5 -39.5zM173 567v-120q0 -21 18.5 -30t37 -0.5t18.5 30.5v119q0 22 -18.5 31.5t-37 0.5t-18.5 -31z" />
<glyph unicode="&#xbb;" horiz-adv-x="555" d="M152 60l-122 70l109 158l-107 158l119 72l154 -229zM377 59l-120 73l107 157q-95 141 -107 158l121 71l153 -229z" />
<glyph unicode="&#xbc;" horiz-adv-x="831" d="M659 649l-422 -694l-117 70l422 694zM254 272v441h-107l-126 -137l50 -70l49 28v-262h134zM761 468h-113l-240 -291l58 -90h161v-87h134v87h36v117h-36v264zM639 200h-84l82 94l4 -1z" />
<glyph unicode="&#xbd;" horiz-adv-x="859" d="M666 649l-423 -694l-115 71l422 693zM254 272v441h-107l-126 -137l50 -70l49 28v-262h134zM507 353l91 -76q22 38 54 35q23 -2 24 -23q1 -20 -21 -45l-153 -170l28 -74h291v127h-112l59 54q51 43 51 109q0 61 -44.5 104t-115.5 43q-98 0 -152 -84z" />
<glyph unicode="&#xbe;" horiz-adv-x="860" d="M717 649l-422 -694l-113 71l422 693zM140 438h54q12 1 19.5 -7.5t7.5 -18.5q0 -21 -20.5 -30.5t-46 -3t-36.5 27.5l-95 -58q26 -54 82 -79t117 -14t101 55q26 29 34.5 65t-7.5 70.5t-57 53.5q36 33 41 73t-15.5 70.5t-59 50.5t-82.5 18q-39 -2 -67.5 -19t-62.5 -53 l80 -66q19 24 53 26q30 1 35 -25q4 -22 -13 -31q-4 -2 -9 -2h-53v-103zM690 452l-232 -281l56 -87h163v-84h118v84h35v113h-35v255h-105zM600 193l79 91l4 -1l-2 -90h-81z" />
<glyph unicode="&#xbf;" horiz-adv-x="474" d="M345 449q0 -34 -23 -56.5t-56 -22.5t-56 22.5t-23 56.5q0 33 23 56t56 23t56 -23t23 -56zM366 -18l90 -76q-81 -106 -200 -106q-65 0 -116.5 27.5t-78.5 70t-34 93t8.5 96t58.5 80t106 43.5l10 113h121l9 -207q-28 7 -62 7q-66 0 -94.5 -50.5t0 -98.5t97.5 -42 q53 5 85 50z" />
<glyph unicode="&#xc0;" horiz-adv-x="634" d="M407 756h-130l-117 142h164zM386 708l254 -708h-154l-62 162h-211l-59 -162h-157l248 708h141zM290 450l-40 -153h136l-45 154l-22 101h-7z" />
<glyph unicode="&#xc1;" horiz-adv-x="634" d="M494 898l-129 -142h-136l95 142h170zM386 708l254 -708h-154l-62 162h-211l-59 -162h-157l248 708h141zM290 450l-40 -153h136l-45 154l-22 101h-7z" />
<glyph unicode="&#xc2;" horiz-adv-x="634" d="M512 756h-161l-36 41l-36 -41h-157l136 142h116zM386 708l254 -708h-154l-62 162h-211l-59 -162h-157l248 708h141zM290 450l-40 -153h136l-45 154l-22 101h-7z" />
<glyph unicode="&#xc3;" horiz-adv-x="634" d="M222 763l-73 37q9 49 40.5 78.5t66.5 29.5q17 0 37.5 -7.5t35.5 -15t29.5 -12.5t26.5 1t20 25l72 -36q-18 -55 -42.5 -79.5t-60.5 -24.5q-19 0 -43.5 11t-41 20t-35 4.5t-32.5 -31.5zM386 708l254 -708h-154l-62 162h-211l-59 -162h-157l248 708h141zM290 450l-40 -153 h136l-45 154l-22 101h-7z" />
<glyph unicode="&#xc4;" horiz-adv-x="634" d="M130 830q0 33 22.5 55t54.5 22q31 0 54 -22.5t23 -54.5q0 -31 -23 -53t-54 -22q-32 0 -54.5 22t-22.5 53zM347 830q0 33 22 55t55 22t55.5 -22t22.5 -55q0 -32 -22.5 -53.5t-55.5 -21.5t-55 21.5t-22 53.5zM386 708l254 -708h-154l-62 162h-211l-59 -162h-157l248 708 h141zM290 450l-40 -153h136l-45 154l-22 101h-7z" />
<glyph unicode="&#xc5;" horiz-adv-x="634" d="M486 0l-62 162h-211l-59 -162h-157l242 691q-47 37 -47 96q0 51 37 87.5t88 36.5t86 -38t35 -87q0 -57 -46 -95l248 -691h-154zM317 837q-23 0 -38 -14.5t-15 -36.5q0 -18 16 -33.5t37 -15.5q20 0 34.5 14t14.5 35q0 22 -14.5 36.5t-34.5 14.5zM341 451l-22 101h-7 l-22 -102l-40 -153h136z" />
<glyph unicode="&#xc6;" horiz-adv-x="826" d="M785 560h-260v-133h234v-147h-234v-134h260v-146h-397v204h-132l-94 -204h-176l363 708h436v-148zM317 345h79l1 174l-11 1z" />
<glyph unicode="&#xc7;" horiz-adv-x="584" d="M447 209l127 -71q-75 -122 -207 -144l-21 -45q47 -4 65.5 -41.5t1.5 -82.5q-21 -56 -90 -69t-145 40l28 64q34 -22 60.5 -19.5t33.5 24.5q6 19 -11.5 34t-62.5 15l41 80q-95 15 -159 75t-64 156v258q0 110 82.5 172.5t195.5 62.5q75 0 143.5 -39t102.5 -113l-118 -64 q-20 38 -58 57.5t-81 18.5q-50 -1 -85.5 -27t-35.5 -68v-258q0 -42 34.5 -67t83.5 -26q42 -1 80.5 18.5t58.5 58.5z" />
<glyph unicode="&#xc8;" horiz-adv-x="583" d="M393 756h-130l-117 142h164zM210 565v-139h305v-143h-305v-140h332v-143h-480v709h480v-144h-332z" />
<glyph unicode="&#xc9;" horiz-adv-x="583" d="M480 898l-129 -142h-136l95 142h170zM210 565v-139h305v-143h-305v-140h332v-143h-480v709h480v-144h-332z" />
<glyph unicode="&#xca;" horiz-adv-x="583" d="M498 756h-161l-36 41l-36 -41h-157l136 142h116zM210 565v-139h305v-143h-305v-140h332v-143h-480v709h480v-144h-332z" />
<glyph unicode="&#xcb;" horiz-adv-x="583" d="M116 830q0 33 22.5 55t54.5 22q31 0 54 -22.5t23 -54.5q0 -31 -23 -53t-54 -22q-32 0 -54.5 22t-22.5 53zM333 830q0 33 22 55t55 22t55.5 -22t22.5 -55q0 -32 -22.5 -53.5t-55.5 -21.5t-55 21.5t-22 53.5zM210 565v-139h305v-143h-305v-140h332v-143h-480v709h480v-144 h-332z" />
<glyph unicode="&#xcc;" horiz-adv-x="271" d="M227 756h-130l-117 142h164zM209 708v-708h-147v708h147z" />
<glyph unicode="&#xcd;" horiz-adv-x="271" d="M314 898l-129 -142h-136l95 142h170zM209 708v-708h-147v708h147z" />
<glyph unicode="&#xce;" horiz-adv-x="271" d="M332 756h-161l-36 41l-36 -41h-157l136 142h116zM209 708v-708h-147v708h147z" />
<glyph unicode="&#xcf;" horiz-adv-x="271" d="M-50 830q0 33 22.5 55t54.5 22q31 0 54 -22.5t23 -54.5q0 -31 -23 -53t-54 -22q-32 0 -54.5 22t-22.5 53zM167 830q0 33 22 55t55 22t55.5 -22t22.5 -55q0 -32 -22.5 -53.5t-55.5 -21.5t-55 21.5t-22 53.5zM209 708v-708h-147v708h147z" />
<glyph unicode="&#xd0;" horiz-adv-x="644" d="M70 414v294h282q111 0 179 -56.5t68 -170.5v-255q0 -114 -68 -170t-179 -56h-282v286h-56v128h56zM218 148h134q100 0 100 78v255q0 79 -100 79h-134v-146h118v-128h-118v-138z" />
<glyph unicode="&#xd1;" horiz-adv-x="679" d="M246 763l-73 37q9 49 40.5 78.5t66.5 29.5q17 0 37.5 -7.5t35.5 -15t29.5 -12.5t26.5 1t20 25l72 -36q-18 -55 -42.5 -79.5t-60.5 -24.5q-19 0 -43.5 11t-41 20t-35 4.5t-32.5 -31.5zM481 194l10 2q-18 103 -21 150v362h147v-708h-157l-216 372l-43 96l-10 -2l19 -121 v-345h-148v708h145l224 -386z" />
<glyph unicode="&#xd2;" horiz-adv-x="666" d="M424 766h-130l-117 142h164zM43 225v257q0 76 43 131t107.5 80.5t139.5 24.5q118 0 204 -62.5t86 -173.5v-257q0 -111 -86 -173.5t-204 -62.5q-75 0 -139.5 25t-107.5 80.5t-43 130.5zM189 482v-257q0 -42 42.5 -65.5t101.5 -23.5q59 1 101 24t42 65v257q0 43 -43 67 t-101 23q-57 0 -100 -24t-43 -66z" />
<glyph unicode="&#xd3;" horiz-adv-x="666" d="M511 908l-129 -142h-136l95 142h170zM43 225v257q0 76 43 131t107.5 80.5t139.5 24.5q118 0 204 -62.5t86 -173.5v-257q0 -111 -86 -173.5t-204 -62.5q-75 0 -139.5 25t-107.5 80.5t-43 130.5zM189 482v-257q0 -42 42.5 -65.5t101.5 -23.5q59 1 101 24t42 65v257 q0 43 -43 67t-101 23q-57 0 -100 -24t-43 -66z" />
<glyph unicode="&#xd4;" horiz-adv-x="666" d="M529 766h-161l-36 41l-36 -41h-157l136 142h116zM43 225v257q0 76 43 131t107.5 80.5t139.5 24.5q118 0 204 -62.5t86 -173.5v-257q0 -111 -86 -173.5t-204 -62.5q-75 0 -139.5 25t-107.5 80.5t-43 130.5zM189 482v-257q0 -42 42.5 -65.5t101.5 -23.5q59 1 101 24t42 65 v257q0 43 -43 67t-101 23q-57 0 -100 -24t-43 -66z" />
<glyph unicode="&#xd5;" horiz-adv-x="666" d="M239 773l-73 37q9 49 40.5 78.5t66.5 29.5q17 0 37.5 -7.5t35.5 -15t29.5 -12.5t26.5 1t20 25l72 -36q-18 -55 -42.5 -79.5t-60.5 -24.5q-19 0 -43.5 11t-41 20t-35 4.5t-32.5 -31.5zM43 225v257q0 76 43 131t107.5 80.5t139.5 24.5q118 0 204 -62.5t86 -173.5v-257 q0 -111 -86 -173.5t-204 -62.5q-75 0 -139.5 25t-107.5 80.5t-43 130.5zM189 482v-257q0 -42 42.5 -65.5t101.5 -23.5q59 1 101 24t42 65v257q0 43 -43 67t-101 23q-57 0 -100 -24t-43 -66z" />
<glyph unicode="&#xd6;" horiz-adv-x="666" d="M147 840q0 33 22.5 55t54.5 22q31 0 54 -22.5t23 -54.5q0 -31 -23 -53t-54 -22q-32 0 -54.5 22t-22.5 53zM364 840q0 33 22 55t55 22t55.5 -22t22.5 -55q0 -32 -22.5 -53.5t-55.5 -21.5t-55 21.5t-22 53.5zM43 225v257q0 76 43 131t107.5 80.5t139.5 24.5 q118 0 204 -62.5t86 -173.5v-257q0 -111 -86 -173.5t-204 -62.5q-75 0 -139.5 25t-107.5 80.5t-43 130.5zM189 482v-257q0 -42 42.5 -65.5t101.5 -23.5q59 1 101 24t42 65v257q0 43 -43 67t-101 23q-57 0 -100 -24t-43 -66z" />
<glyph unicode="&#xd7;" horiz-adv-x="528" d="M264 393l132 132l98 -99l-130 -130l129 -130l-98 -98l-130 130l-134 -135l-96 100l132 131l-135 135l98 97z" />
<glyph unicode="&#xd8;" horiz-adv-x="666" d="M548 766l-37 -93q112 -66 112 -191v-257q0 -111 -86 -173.5t-204 -62.5q-45 0 -94 11l-34 -85l-78 31l34 84q-118 67 -118 195v257q0 76 43 131t107.5 80.5t139.5 24.5q53 0 99 -13l36 89zM189 482v-257q0 -33 28 -56l160 399q-19 4 -45 4q-57 0 -100 -24t-43 -66z M476 225v257q0 31 -22 51l-159 -394q18 -3 38 -3q59 1 101 24t42 65z" />
<glyph unicode="&#xd9;" horiz-adv-x="668" d="M427 756h-130l-117 142h164zM204 708v-475q0 -47 38 -73t91 -26q55 0 93 26t38 73v475h148v-475q0 -115 -82 -179t-197 -64q-113 0 -195 64t-82 179v475h148z" />
<glyph unicode="&#xda;" horiz-adv-x="668" d="M514 898l-129 -142h-136l95 142h170zM204 708v-475q0 -47 38 -73t91 -26q55 0 93 26t38 73v475h148v-475q0 -115 -82 -179t-197 -64q-113 0 -195 64t-82 179v475h148z" />
<glyph unicode="&#xdb;" horiz-adv-x="668" d="M532 756h-161l-36 41l-36 -41h-157l136 142h116zM204 708v-475q0 -47 38 -73t91 -26q55 0 93 26t38 73v475h148v-475q0 -115 -82 -179t-197 -64q-113 0 -195 64t-82 179v475h148z" />
<glyph unicode="&#xdc;" horiz-adv-x="668" d="M150 830q0 33 22.5 55t54.5 22q31 0 54 -22.5t23 -54.5q0 -31 -23 -53t-54 -22q-32 0 -54.5 22t-22.5 53zM367 830q0 33 22 55t55 22t55.5 -22t22.5 -55q0 -32 -22.5 -53.5t-55.5 -21.5t-55 21.5t-22 53.5zM204 708v-475q0 -47 38 -73t91 -26q55 0 93 26t38 73v475h148 v-475q0 -115 -82 -179t-197 -64q-113 0 -195 64t-82 179v475h148z" />
<glyph unicode="&#xdd;" horiz-adv-x="628" d="M492 898l-129 -142h-136l95 142h170zM387 0h-147v271l-246 437h169l150 -296l150 296h171l-247 -437v-271z" />
<glyph unicode="&#xde;" horiz-adv-x="614" d="M62 1v708h146v-101h133q55 0 100.5 -17t75 -45t50 -65t24.5 -77.5t-0.5 -81t-25 -77t-50 -65t-74.5 -45t-99 -16.5h-134v-118h-146zM208 257h133q51 0 80 31.5t29 70t-29 70t-80 31.5h-133v-203z" />
<glyph unicode="&#xdf;" horiz-adv-x="578" d="M232 18v141q44 -39 105.5 -17.5t61.5 77.5q0 41 -27.5 60.5t-72.5 19.5h-70v135h70q29 0 51.5 27t22.5 60q0 29 -19 48.5t-45.5 23t-53 -2t-44.5 -26t-17 -49.5v-515h-140v515q-1 56 24.5 100t66 67.5t89.5 34.5t98.5 1.5t90.5 -31.5t66.5 -66t25.5 -100q0 -95 -73 -148 q56 -28 82.5 -77t23 -100.5t-31.5 -97.5q-41 -67 -122 -89.5t-162 9.5z" />
<glyph unicode="&#xe0;" d="M342 576h-130l-117 142h164zM27 154q0 84 53.5 126.5t130.5 42.5q46 0 92 -16v37q0 72 -80 72q-28 0 -59 -14t-50 -34l-68 73q74 85 187 87q85 0 144.5 -47.5t59.5 -136.5v-316q-101 -38 -195 -38q-107 0 -161 43.5t-54 120.5zM299 104v105q-32 12 -63 12 q-38 0 -57.5 -17t-19.5 -46q0 -61 81 -61q32 0 59 7z" />
<glyph unicode="&#xe1;" d="M429 718l-129 -142h-136l95 142h170zM27 154q0 84 53.5 126.5t130.5 42.5q46 0 92 -16v37q0 72 -80 72q-28 0 -59 -14t-50 -34l-68 73q74 85 187 87q85 0 144.5 -47.5t59.5 -136.5v-316q-101 -38 -195 -38q-107 0 -161 43.5t-54 120.5zM299 104v105q-32 12 -63 12 q-38 0 -57.5 -17t-19.5 -46q0 -61 81 -61q32 0 59 7z" />
<glyph unicode="&#xe2;" d="M437 576h-161l-36 41l-36 -41h-157l136 142h116zM27 154q0 84 53.5 126.5t130.5 42.5q46 0 92 -16v37q0 72 -80 72q-28 0 -59 -14t-50 -34l-68 73q74 85 187 87q85 0 144.5 -47.5t59.5 -136.5v-316q-101 -38 -195 -38q-107 0 -161 43.5t-54 120.5zM299 104v105 q-32 12 -63 12q-38 0 -57.5 -17t-19.5 -46q0 -61 81 -61q32 0 59 7z" />
<glyph unicode="&#xe3;" d="M147 583l-73 37q9 49 40.5 78.5t66.5 29.5q17 0 37.5 -7.5t35.5 -15t29.5 -12.5t26.5 1t20 25l72 -36q-18 -55 -42.5 -79.5t-60.5 -24.5q-19 0 -43.5 11t-41 20t-35 4.5t-32.5 -31.5zM27 154q0 84 53.5 126.5t130.5 42.5q46 0 92 -16v37q0 72 -80 72q-28 0 -59 -14 t-50 -34l-68 73q74 85 187 87q85 0 144.5 -47.5t59.5 -136.5v-316q-101 -38 -195 -38q-107 0 -161 43.5t-54 120.5zM299 104v105q-32 12 -63 12q-38 0 -57.5 -17t-19.5 -46q0 -61 81 -61q32 0 59 7z" />
<glyph unicode="&#xe4;" d="M61 650q0 33 22.5 55t54.5 22q31 0 54 -22.5t23 -54.5q0 -31 -23 -53t-54 -22q-32 0 -54.5 22t-22.5 53zM278 650q0 33 22 55t55 22t55.5 -22t22.5 -55q0 -32 -22.5 -53.5t-55.5 -21.5t-55 21.5t-22 53.5zM27 154q0 84 53.5 126.5t130.5 42.5q46 0 92 -16v37q0 72 -80 72 q-28 0 -59 -14t-50 -34l-68 73q74 85 187 87q85 0 144.5 -47.5t59.5 -136.5v-316q-101 -38 -195 -38q-107 0 -161 43.5t-54 120.5zM299 104v105q-32 12 -63 12q-38 0 -57.5 -17t-19.5 -46q0 -61 81 -61q32 0 59 7z" />
<glyph unicode="&#xe5;" d="M240 792q55 0 86.5 -35.5t31.5 -78.5t-31.5 -78.5t-86.5 -35.5q-57 0 -89.5 35.5t-32.5 78.5t32.5 78.5t89.5 35.5zM240 726q-32 0 -44.5 -24t1 -48t43.5 -24t42 24t0 48t-42 24zM27 154q0 84 53.5 126.5t130.5 42.5q46 0 92 -16v37q0 72 -80 72q-28 0 -59 -14t-50 -34 l-68 73q74 85 187 87q85 0 144.5 -47.5t59.5 -136.5v-316q-101 -38 -195 -38q-107 0 -161 43.5t-54 120.5zM299 104v105q-32 12 -63 12q-38 0 -57.5 -17t-19.5 -46q0 -61 81 -61q32 0 59 7z" />
<glyph unicode="&#xe6;" horiz-adv-x="726" d="M586 143l86 -60q-62 -93 -168 -93q-91 0 -139 63q-66 -63 -151 -63q-78 1 -130.5 45.5t-52.5 126.5q0 76 45 125t134 49q62 0 93 -16q3 50 -22 73.5t-67 23.5q-67 0 -108 -44l-68 63q32 44 83 68t107 24q82 0 142 -47q49 47 130 47t137 -48t56 -137v-142h-270v-27 q0 -35 25.5 -53t60.5 -18q52 0 77 40zM572 302v47q0 27 -22.5 43t-52.5 16t-52 -16.5t-22 -43.5v-46h149zM301 220q-27 11 -74 9q-37 -1 -57.5 -20t-20.5 -45q0 -31 21.5 -49t61.5 -18q55 0 76 20q-9 40 -7 103z" />
<glyph unicode="&#xe7;" horiz-adv-x="468" d="M328 171l122 -40q-38 -111 -151 -135l-22 -47q46 -4 63.5 -40t1.5 -79q-20 -54 -86.5 -66.5t-139.5 38.5l27 61q33 -21 58.5 -18.5t31.5 23.5q6 18 -11 32.5t-60 14.5l40 79q-70 13 -116 59t-46 120v171q0 87 62 135.5t146 48.5q65 0 121 -33.5t75 -106.5l-119 -37 q-8 26 -29.5 39t-47.5 13q-28 0 -48.5 -16t-20.5 -42v-171q0 -27 20.5 -43t48.5 -16q26 0 48.5 14t31.5 42z" />
<glyph unicode="&#xe8;" d="M340 576h-130l-117 142h164zM339 154l91 -66q-28 -51 -78 -74.5t-103 -23.5q-85 0 -147 48.5t-62 135.5v171q0 88 62.5 135.5t148.5 47.5q84 0 142 -44.5t58 -132.5v-152h-271v-23q0 -29 23 -45t55 -16q57 0 81 39zM320 302v47q0 26 -20 40t-48 14q-29 0 -50.5 -14.5 t-21.5 -40.5v-46h140z" />
<glyph unicode="&#xe9;" d="M427 718l-129 -142h-136l95 142h170zM339 154l91 -66q-28 -51 -78 -74.5t-103 -23.5q-85 0 -147 48.5t-62 135.5v171q0 88 62.5 135.5t148.5 47.5q84 0 142 -44.5t58 -132.5v-152h-271v-23q0 -29 23 -45t55 -16q57 0 81 39zM320 302v47q0 26 -20 40t-48 14 q-29 0 -50.5 -14.5t-21.5 -40.5v-46h140z" />
<glyph unicode="&#xea;" d="M445 576h-161l-36 41l-36 -41h-157l136 142h116zM339 154l91 -66q-28 -51 -78 -74.5t-103 -23.5q-85 0 -147 48.5t-62 135.5v171q0 88 62.5 135.5t148.5 47.5q84 0 142 -44.5t58 -132.5v-152h-271v-23q0 -29 23 -45t55 -16q57 0 81 39zM320 302v47q0 26 -20 40t-48 14 q-29 0 -50.5 -14.5t-21.5 -40.5v-46h140z" />
<glyph unicode="&#xeb;" d="M63 650q0 33 22.5 55t54.5 22q31 0 54 -22.5t23 -54.5q0 -31 -23 -53t-54 -22q-32 0 -54.5 22t-22.5 53zM280 650q0 33 22 55t55 22t55.5 -22t22.5 -55q0 -32 -22.5 -53.5t-55.5 -21.5t-55 21.5t-22 53.5zM339 154l91 -66q-28 -51 -78 -74.5t-103 -23.5q-85 0 -147 48.5 t-62 135.5v171q0 88 62.5 135.5t148.5 47.5q84 0 142 -44.5t58 -132.5v-152h-271v-23q0 -29 23 -45t55 -16q57 0 81 39zM320 302v47q0 26 -20 40t-48 14q-29 0 -50.5 -14.5t-21.5 -40.5v-46h140z" />
<glyph unicode="&#xec;" horiz-adv-x="249" d="M216 566h-130l-117 142h164zM196 517v-517h-142v517h142z" />
<glyph unicode="&#xed;" horiz-adv-x="250" d="M303 708l-129 -142h-136l95 142h170zM196 517v-517h-142v517h142z" />
<glyph unicode="&#xee;" horiz-adv-x="250" d="M301 566h-142l-35 45l-34 -45h-139l116 142h116zM196 517v-517h-142v517h142z" />
<glyph unicode="&#xef;" horiz-adv-x="250" d="M-51 631q0 33 22.5 55t54.5 22q31 0 54 -22.5t23 -54.5q0 -31 -23 -53t-54 -22q-32 0 -54.5 22t-22.5 53zM146 631q0 33 22 55t55 22t55.5 -22t22.5 -55q0 -32 -22.5 -53.5t-55.5 -21.5t-55 21.5t-22 53.5zM196 517v-517h-142v517h142z" />
<glyph unicode="&#xf0;" horiz-adv-x="505" d="M337 753l-17 -52q58 -22 95.5 -73.5t37.5 -123.5v-467q-94 -47 -191 -47q-95 0 -158 43t-63 134v195q0 52 25.5 90.5t65 56t88 21.5t95.5 -14q0 45 -34 69l-11 -33l-59 14l11 35q-61 0 -95 -38l-67 71q35 41 88 62.5t108 16.5h3l18 55zM313 111v294q-24 15 -61 15 q-32 0 -54.5 -15.5t-22.5 -44.5v-192q0 -34 24 -51t59 -17q28 0 55 11z" />
<glyph unicode="&#xf1;" horiz-adv-x="515" d="M166 583l-73 37q9 49 40.5 78.5t66.5 29.5q17 0 37.5 -7.5t35.5 -15t29.5 -12.5t26.5 1t20 25l72 -36q-18 -55 -42.5 -79.5t-60.5 -24.5q-19 0 -43.5 11t-41 20t-35 4.5t-32.5 -31.5zM53 0v483q92 45 187 45q62 0 111 -18t82 -62t33 -109v-339h-138v334q0 34 -23 51.5 t-56 17.5q-32 0 -57 -14v-389h-139z" />
<glyph unicode="&#xf2;" horiz-adv-x="494" d="M339 566h-130l-117 142h164zM40 174v169q0 87 61.5 135.5t146.5 49.5q84 -1 145.5 -49.5t61.5 -135.5v-169q0 -88 -61 -135.5t-146 -48.5q-85 1 -146.5 48.5t-61.5 135.5zM248 403q-27 0 -48 -14t-21 -37v-181q0 -24 21.5 -40t47.5 -16q25 0 46.5 16t21.5 40v181 q0 23 -21 37t-47 14z" />
<glyph unicode="&#xf3;" horiz-adv-x="494" d="M426 708l-129 -142h-136l95 142h170zM40 174v169q0 87 61.5 135.5t146.5 49.5q84 -1 145.5 -49.5t61.5 -135.5v-169q0 -88 -61 -135.5t-146 -48.5q-85 1 -146.5 48.5t-61.5 135.5zM248 403q-27 0 -48 -14t-21 -37v-181q0 -24 21.5 -40t47.5 -16q25 0 46.5 16t21.5 40v181 q0 23 -21 37t-47 14z" />
<glyph unicode="&#xf4;" horiz-adv-x="494" d="M444 566h-161l-36 41l-36 -41h-157l136 142h116zM40 174v169q0 87 61.5 135.5t146.5 49.5q84 -1 145.5 -49.5t61.5 -135.5v-169q0 -88 -61 -135.5t-146 -48.5q-85 1 -146.5 48.5t-61.5 135.5zM248 403q-27 0 -48 -14t-21 -37v-181q0 -24 21.5 -40t47.5 -16q25 0 46.5 16 t21.5 40v181q0 23 -21 37t-47 14z" />
<glyph unicode="&#xf5;" horiz-adv-x="494" d="M154 573l-73 37q9 49 40.5 78.5t66.5 29.5q17 0 37.5 -7.5t35.5 -15t29.5 -12.5t26.5 1t20 25l72 -36q-18 -55 -42.5 -79.5t-60.5 -24.5q-19 0 -43.5 11t-41 20t-35 4.5t-32.5 -31.5zM40 174v169q0 87 61.5 135.5t146.5 49.5q84 -1 145.5 -49.5t61.5 -135.5v-169 q0 -88 -61 -135.5t-146 -48.5q-85 1 -146.5 48.5t-61.5 135.5zM248 403q-27 0 -48 -14t-21 -37v-181q0 -24 21.5 -40t47.5 -16q25 0 46.5 16t21.5 40v181q0 23 -21 37t-47 14z" />
<glyph unicode="&#xf6;" horiz-adv-x="494" d="M62 640q0 33 22.5 55t54.5 22q31 0 54 -22.5t23 -54.5q0 -31 -23 -53t-54 -22q-32 0 -54.5 22t-22.5 53zM279 640q0 33 22 55t55 22t55.5 -22t22.5 -55q0 -32 -22.5 -53.5t-55.5 -21.5t-55 21.5t-22 53.5zM40 174v169q0 87 61.5 135.5t146.5 49.5q84 -1 145.5 -49.5 t61.5 -135.5v-169q0 -88 -61 -135.5t-146 -48.5q-85 1 -146.5 48.5t-61.5 135.5zM248 403q-27 0 -48 -14t-21 -37v-181q0 -24 21.5 -40t47.5 -16q25 0 46.5 16t21.5 40v181q0 23 -21 37t-47 14z" />
<glyph unicode="&#xf7;" horiz-adv-x="510" d="M167 500q0 36 26 61.5t62 25.5t62.5 -25.5t26.5 -61.5q0 -37 -26.5 -63.5t-62.5 -26.5t-62 26.5t-26 63.5zM480 380v-133h-449v133h449zM170 128q0 38 25.5 62t63.5 25q37 0 63 -25t26 -62t-26 -63t-62 -26q-37 0 -63.5 26t-26.5 63z" />
<glyph unicode="&#xf8;" horiz-adv-x="494" d="M404 555l-26 -65q77 -52 77 -147v-169q0 -88 -61 -135.5t-146 -48.5q-30 0 -64 8l-27 -68l-68 28l28 69q-77 50 -77 147v169q0 87 61.5 135.5t146.5 49.5q34 0 64 -9l25 62zM179 184l86 217q-10 2 -17 2q-27 0 -48 -14t-21 -37v-168zM248 115q25 0 46.5 16t21.5 40v161 l-85 -215q12 -2 17 -2z" />
<glyph unicode="&#xf9;" horiz-adv-x="516" d="M348 566h-130l-117 142h164zM464 518v-490q-106 -38 -196 -38q-96 0 -157 45t-61 147v336h139v-328q0 -43 24.5 -64t62.5 -21q26 0 50 9v404h138z" />
<glyph unicode="&#xfa;" horiz-adv-x="516" d="M435 708l-129 -142h-136l95 142h170zM464 518v-490q-106 -38 -196 -38q-96 0 -157 45t-61 147v336h139v-328q0 -43 24.5 -64t62.5 -21q26 0 50 9v404h138z" />
<glyph unicode="&#xfb;" horiz-adv-x="516" d="M453 566h-161l-36 41l-36 -41h-157l136 142h116zM464 518v-490q-106 -38 -196 -38q-96 0 -157 45t-61 147v336h139v-328q0 -43 24.5 -64t62.5 -21q26 0 50 9v404h138z" />
<glyph unicode="&#xfc;" horiz-adv-x="516" d="M71 640q0 33 22.5 55t54.5 22q31 0 54 -22.5t23 -54.5q0 -31 -23 -53t-54 -22q-32 0 -54.5 22t-22.5 53zM288 640q0 33 22 55t55 22t55.5 -22t22.5 -55q0 -32 -22.5 -53.5t-55.5 -21.5t-55 21.5t-22 53.5zM464 518v-490q-106 -38 -196 -38q-96 0 -157 45t-61 147v336h139 v-328q0 -43 24.5 -64t62.5 -21q26 0 50 9v404h138z" />
<glyph unicode="&#xfd;" horiz-adv-x="517" d="M435 708l-129 -142h-136l95 142h170zM463 518v-514q0 -100 -59.5 -154t-155.5 -54q-112 0 -181 69l66 87q40 -38 99 -38q47 0 72.5 22t24.5 71q-51 -17 -88 -17q-87 0 -138.5 44.5t-51.5 126.5v357h134v-355q0 -61 80 -61q30 0 58 16v400h140z" />
<glyph unicode="&#xfe;" horiz-adv-x="511" d="M193 708v-197q31 17 76 17q201 0 201 -176v-179q0 -89 -60.5 -136t-144.5 -47q-39 0 -72 18v-179h-139v879h139zM193 401v-281q23 -15 59 -15q33 0 56 17.5t23 51.5v174q0 32 -22 50t-53 18q-36 0 -63 -15z" />
<glyph unicode="&#xff;" horiz-adv-x="517" d="M71 640q0 33 22.5 55t54.5 22q31 0 54 -22.5t23 -54.5q0 -31 -23 -53t-54 -22q-32 0 -54.5 22t-22.5 53zM288 640q0 33 22 55t55 22t55.5 -22t22.5 -55q0 -32 -22.5 -53.5t-55.5 -21.5t-55 21.5t-22 53.5zM463 518v-514q0 -100 -59.5 -154t-155.5 -54q-112 0 -181 69 l66 87q40 -38 99 -38q47 0 72.5 22t24.5 71q-51 -17 -88 -17q-87 0 -138.5 44.5t-51.5 126.5v357h134v-355q0 -61 80 -61q30 0 58 16v400h140z" />
<glyph unicode="&#x100;" horiz-adv-x="634" d="M181 776v103h269v-103h-269zM386 708l254 -708h-154l-62 162h-211l-59 -162h-157l248 708h141zM290 450l-40 -153h136l-45 154l-22 101h-7z" />
<glyph unicode="&#x101;" d="M116 596v103h269v-103h-269zM27 154q0 84 53.5 126.5t130.5 42.5q46 0 92 -16v37q0 72 -80 72q-28 0 -59 -14t-50 -34l-68 73q74 85 187 87q85 0 144.5 -47.5t59.5 -136.5v-316q-101 -38 -195 -38q-107 0 -161 43.5t-54 120.5zM299 104v105q-32 12 -63 12 q-38 0 -57.5 -17t-19.5 -46q0 -61 81 -61q32 0 59 7z" />
<glyph unicode="&#x102;" horiz-adv-x="634" d="M359 898h116q0 -41 -17.5 -73t-45.5 -48.5t-62 -24t-68.5 0t-62.5 24t-45.5 48.5t-17.5 73h121q0 -25 20.5 -35t41 0t20.5 35zM386 708l254 -708h-154l-62 162h-211l-59 -162h-157l248 708h141zM290 450l-40 -153h136l-45 154l-22 101h-7z" />
<glyph unicode="&#x103;" d="M282 718h116q0 -41 -17.5 -73t-45.5 -48.5t-62.5 -24t-68.5 0t-62 24t-45.5 48.5t-17.5 73h121q0 -25 20.5 -35t41 0t20.5 35zM27 154q0 84 53.5 126.5t130.5 42.5q46 0 92 -16v37q0 72 -80 72q-28 0 -59 -14t-50 -34l-68 73q74 85 187 87q85 0 144.5 -47.5t59.5 -136.5 v-316q-101 -38 -195 -38q-107 0 -161 43.5t-54 120.5zM299 104v105q-32 12 -63 12q-38 0 -57.5 -17t-19.5 -46q0 -61 81 -61q32 0 59 7z" />
<glyph unicode="&#x104;" horiz-adv-x="634" d="M665 -112l42 -64q-57 -60 -121 -60q-67 0 -95.5 39.5t-13 95t65.5 101.5h-57l-62 162h-211l-59 -162h-157l248 708h141l254 -708q-64 -73 -45 -109q10 -16 34 -16q20 0 36 13zM341 451l-22 101h-7l-22 -102l-40 -153h136z" />
<glyph unicode="&#x105;" horiz-adv-x="486" d="M27 154q0 84 53.5 126.5t130.5 42.5q46 0 92 -16v37q0 72 -80 72q-28 0 -59 -14t-50 -34l-68 73q74 85 187 87q85 0 144.5 -47.5t59.5 -136.5v-332q-69 -77 -59 -117q5 -20 31 -20q20 0 36 13l42 -64q-57 -60 -121 -60q-65 0 -93.5 37.5t-16.5 90.5t57 99l-2 4 q-40 -5 -69 -5q-107 0 -161 43.5t-54 120.5zM299 104v105q-32 12 -63 12q-38 0 -57.5 -17t-19.5 -46q0 -61 81 -61q32 0 59 7z" />
<glyph unicode="&#x106;" horiz-adv-x="584" d="M491 898l-129 -142h-136l95 142h170zM447 209l127 -71q-44 -72 -111.5 -110t-140.5 -38q-112 0 -195 62.5t-83 172.5v258q0 110 82.5 172.5t195.5 62.5q75 0 143.5 -39t102.5 -113l-118 -64q-20 38 -58 57.5t-81 18.5q-50 -1 -85.5 -27t-35.5 -68v-258q0 -42 34.5 -67 t83.5 -26q42 -1 80.5 18.5t58.5 58.5z" />
<glyph unicode="&#x107;" horiz-adv-x="468" d="M426 708l-129 -142h-136l95 142h170zM328 171l122 -40q-25 -73 -81.5 -107t-120.5 -34q-84 0 -146 48t-62 135v171q0 87 62 135.5t146 48.5q65 0 121 -33.5t75 -106.5l-119 -37q-8 26 -29.5 39t-47.5 13q-28 0 -48.5 -16t-20.5 -42v-171q0 -27 20.5 -43t48.5 -16 q26 0 48.5 14t31.5 42z" />
<glyph unicode="&#x10a;" horiz-adv-x="584" d="M227 837q0 35 25 59t61 24t60 -24t24 -59q0 -36 -24 -59t-60 -23t-61 23t-25 59zM447 209l127 -71q-44 -72 -111.5 -110t-140.5 -38q-112 0 -195 62.5t-83 172.5v258q0 110 82.5 172.5t195.5 62.5q75 0 143.5 -39t102.5 -113l-118 -64q-20 38 -58 57.5t-81 18.5 q-50 -1 -85.5 -27t-35.5 -68v-258q0 -42 34.5 -67t83.5 -26q42 -1 80.5 18.5t58.5 58.5z" />
<glyph unicode="&#x10b;" horiz-adv-x="468" d="M159 652q0 37 25.5 61.5t63.5 24.5t63 -24.5t25 -61.5t-25 -61t-63 -24t-63.5 24t-25.5 61zM328 171l122 -40q-25 -73 -81.5 -107t-120.5 -34q-84 0 -146 48t-62 135v171q0 87 62 135.5t146 48.5q65 0 121 -33.5t75 -106.5l-119 -37q-8 26 -29.5 39t-47.5 13 q-28 0 -48.5 -16t-20.5 -42v-171q0 -27 20.5 -43t48.5 -16q26 0 48.5 14t31.5 42z" />
<glyph unicode="&#x10c;" horiz-adv-x="584" d="M258 756l-136 142h157l36 -41l36 41h161l-138 -142h-116zM447 209l127 -71q-44 -72 -111.5 -110t-140.5 -38q-112 0 -195 62.5t-83 172.5v258q0 110 82.5 172.5t195.5 62.5q75 0 143.5 -39t102.5 -113l-118 -64q-20 38 -58 57.5t-81 18.5q-50 -1 -85.5 -27t-35.5 -68 v-258q0 -42 34.5 -67t83.5 -26q42 -1 80.5 18.5t58.5 58.5z" />
<glyph unicode="&#x10d;" horiz-adv-x="468" d="M193 566l-136 142h157l36 -41l36 41h161l-138 -142h-116zM328 171l122 -40q-25 -73 -81.5 -107t-120.5 -34q-84 0 -146 48t-62 135v171q0 87 62 135.5t146 48.5q65 0 121 -33.5t75 -106.5l-119 -37q-8 26 -29.5 39t-47.5 13q-28 0 -48.5 -16t-20.5 -42v-171 q0 -27 20.5 -43t48.5 -16q26 0 48.5 14t31.5 42z" />
<glyph unicode="&#x10e;" horiz-adv-x="636" d="M249 756l-136 142h157l36 -41l36 41h161l-138 -142h-116zM62 708h260q114 0 192 -58.5t78 -171.5v-252q0 -112 -77.5 -169t-192.5 -57h-260v708zM209 148h113q53 0 87.5 19t34.5 59v252q0 41 -35 61.5t-87 20.5h-113v-412z" />
<glyph unicode="&#x10f;" horiz-adv-x="513" d="M629 708l-47 -175h-97l22 175h122zM457 707v-678q-102 -39 -202 -39q-90 0 -149 42.5t-66 136.5v183q0 79 57.5 127t134.5 49q46 0 85 -18v197h140zM317 104v300q-23 13 -53.5 13.5t-56 -15t-28.5 -43.5v-203q1 -29 26 -46.5t55.5 -16.5t56.5 11z" />
<glyph unicode="&#x110;" horiz-adv-x="644" d="M70 414v294h282q111 0 179 -56.5t68 -170.5v-255q0 -114 -68 -170t-179 -56h-282v286h-56v128h56zM218 148h134q100 0 100 78v255q0 79 -100 79h-134v-146h118v-128h-118v-138z" />
<glyph unicode="&#x111;" horiz-adv-x="509" d="M510 582h-53v-553q-102 -39 -202 -39q-90 0 -149 42.5t-66 136.5v183q0 79 57.5 127t134.5 49q46 0 85 -18v72h-99v80h99v45h140v-45h53v-80zM317 104v300q-23 13 -53.5 13.5t-56 -15t-28.5 -43.5v-203q1 -29 26 -46.5t55.5 -16.5t56.5 11z" />
<glyph unicode="&#x112;" horiz-adv-x="583" d="M167 776v103h269v-103h-269zM210 565v-139h305v-143h-305v-140h332v-143h-480v709h480v-144h-332z" />
<glyph unicode="&#x113;" d="M114 596v103h269v-103h-269zM339 154l91 -66q-28 -51 -78 -74.5t-103 -23.5q-85 0 -147 48.5t-62 135.5v171q0 88 62.5 135.5t148.5 47.5q84 0 142 -44.5t58 -132.5v-152h-271v-23q0 -29 23 -45t55 -16q57 0 81 39zM320 302v47q0 26 -20 40t-48 14q-29 0 -50.5 -14.5 t-21.5 -40.5v-46h140z" />
<glyph unicode="&#x116;" horiz-adv-x="583" d="M213 842q0 37 25.5 61.5t63.5 24.5t63 -24.5t25 -61.5t-25 -61t-63 -24t-63.5 24t-25.5 61zM210 565v-139h305v-143h-305v-140h332v-143h-480v709h480v-144h-332z" />
<glyph unicode="&#x117;" d="M160 662q0 37 25.5 61.5t63.5 24.5t63 -24.5t25 -61.5t-25 -61t-63 -24t-63.5 24t-25.5 61zM339 154l91 -66q-28 -51 -78 -74.5t-103 -23.5q-85 0 -147 48.5t-62 135.5v171q0 88 62.5 135.5t148.5 47.5q84 0 142 -44.5t58 -132.5v-152h-271v-23q0 -29 23 -45t55 -16 q57 0 81 39zM320 302v47q0 26 -20 40t-48 14q-29 0 -50.5 -14.5t-21.5 -40.5v-46h140z" />
<glyph unicode="&#x118;" horiz-adv-x="582" d="M564 -112l42 -64q-57 -60 -121 -60q-67 0 -95.5 39.5t-13 95t65.5 101.5h-381v709h480v-144h-332v-139h305v-143h-305v-140h332v-143q-66 -74 -46 -109q8 -16 33 -16q20 0 36 13z" />
<glyph unicode="&#x119;" horiz-adv-x="485" d="M180 199v-25q0 -34 32.5 -50.5t71 -8t55.5 36.5l91 -64q-17 -31 -44.5 -55.5t-49 -37.5t-37 -34t-13.5 -49q2 -37 37 -37q20 0 36 13l42 -64q-57 -60 -121 -60q-65 0 -93.5 37.5t-16 90.5t57.5 99q-79 7 -133.5 54.5t-54.5 128.5v171q0 88 62 135.5t147 47.5 q83 0 143.5 -47.5t60.5 -135.5v-146h-273zM322 302v49q0 34 -36 48t-71.5 -0.5t-34.5 -48.5v-48h142z" />
<glyph unicode="&#x11a;" horiz-adv-x="583" d="M247 756l-136 142h157l36 -41l36 41h161l-138 -142h-116zM210 565v-139h305v-143h-305v-140h332v-143h-480v709h480v-144h-332z" />
<glyph unicode="&#x11b;" d="M194 576l-136 142h157l36 -41l36 41h161l-138 -142h-116zM339 154l91 -66q-28 -51 -78 -74.5t-103 -23.5q-85 0 -147 48.5t-62 135.5v171q0 88 62.5 135.5t148.5 47.5q84 0 142 -44.5t58 -132.5v-152h-271v-23q0 -29 23 -45t55 -16q57 0 81 39zM320 302v47q0 26 -20 40 t-48 14q-29 0 -50.5 -14.5t-21.5 -40.5v-46h140z" />
<glyph unicode="&#x11e;" horiz-adv-x="628" d="M363 898h116q0 -41 -17.5 -73t-45.5 -48.5t-62 -24t-68.5 0t-62.5 24t-45.5 48.5t-17.5 73h121q0 -25 20.5 -35t41 0t20.5 35zM569 568l-119 -63q-16 39 -53 58.5t-81 19.5q-51 0 -88.5 -26.5t-37.5 -71.5v-258q0 -45 38.5 -69.5t92.5 -24.5t93.5 24.5t39.5 69.5v34h-161 v143h305v-177q0 -111 -82 -173.5t-194 -63.5q-72 -1 -134 24.5t-103 81t-41 131.5v258q0 110 82 171.5t194 61.5q79 0 145 -36t104 -114z" />
<glyph unicode="&#x11f;" horiz-adv-x="506" d="M302 718h116q0 -41 -17.5 -73t-45.5 -48.5t-62.5 -24t-68.5 0t-62 24t-45.5 48.5t-17.5 73h121q0 -25 20.5 -35t41 0t20.5 35zM61 -134l64 83q39 -37 105 -37q86 0 86 100q-37 -22 -84 -22q-79 0 -134.5 44.5t-55.5 123.5v196q0 89 60 131.5t152 42.5q110 0 200 -44v-483 q0 -99 -60.5 -152t-153.5 -53q-107 0 -179 70zM314 115v293q-26 13 -59 13t-56 -17t-23 -47v-197q4 -28 27.5 -43t55.5 -15q31 0 55 13z" />
<glyph unicode="&#x120;" horiz-adv-x="628" d="M231 842q0 37 25.5 61.5t63.5 24.5t63 -24.5t25 -61.5t-25 -61t-63 -24t-63.5 24t-25.5 61zM569 568l-119 -63q-16 39 -53 58.5t-81 19.5q-51 0 -88.5 -26.5t-37.5 -71.5v-258q0 -45 38.5 -69.5t92.5 -24.5t93.5 24.5t39.5 69.5v34h-161v143h305v-177q0 -111 -82 -173.5 t-194 -63.5q-72 -1 -134 24.5t-103 81t-41 131.5v258q0 110 82 171.5t194 61.5q79 0 145 -36t104 -114z" />
<glyph unicode="&#x121;" horiz-adv-x="506" d="M170 662q0 37 25.5 61.5t63.5 24.5t63 -24.5t25 -61.5t-25 -61t-63 -24t-63.5 24t-25.5 61zM61 -134l64 83q39 -37 105 -37q86 0 86 100q-37 -22 -84 -22q-79 0 -134.5 44.5t-55.5 123.5v196q0 89 60 131.5t152 42.5q110 0 200 -44v-483q0 -99 -60.5 -152t-153.5 -53 q-107 0 -179 70zM314 115v293q-26 13 -59 13t-56 -17t-23 -47v-197q4 -28 27.5 -43t55.5 -15q31 0 55 13z" />
<glyph unicode="&#x122;" horiz-adv-x="628" d="M569 568l-119 -63q-16 39 -53 58.5t-81 19.5q-51 0 -88.5 -26.5t-37.5 -71.5v-258q0 -45 38.5 -69.5t92.5 -24.5t93.5 24.5t39.5 69.5v34h-161v143h305v-177q0 -111 -82 -173.5t-194 -63.5q-72 -1 -134 24.5t-103 81t-41 131.5v258q0 110 82 171.5t194 61.5q79 0 145 -36 t104 -114zM399 -79l-68 -175h-129l52 175h145z" />
<glyph unicode="&#x123;" horiz-adv-x="506" d="M374 708l-49 -136h-137l34 136h152zM61 -134l64 83q39 -37 105 -37q86 0 86 100q-37 -22 -84 -22q-79 0 -134.5 44.5t-55.5 123.5v196q0 89 60 131.5t152 42.5q110 0 200 -44v-483q0 -99 -60.5 -152t-153.5 -53q-107 0 -179 70zM314 115v293q-26 13 -59 13t-56 -17 t-23 -47v-197q4 -28 27.5 -43t55.5 -15q31 0 55 13z" />
<glyph unicode="&#x126;" horiz-adv-x="685" d="M671 519h-51v-519h-147v280h-261v-280h-147v519h-51v94h51v95h147v-95h261v95h147v-95h51v-94zM473 519h-261v-92h261v92z" />
<glyph unicode="&#x127;" horiz-adv-x="518" d="M277 528q79 0 135 -49t56 -137v-342h-138v343q0 30 -25.5 45.5t-57.5 14t-54 -14.5v-388h-139v574h-55v82h55v52h139v-52h128v-82h-128v-62q39 16 84 16z" />
<glyph unicode="&#x12a;" horiz-adv-x="271" d="M1 776v103h269v-103h-269zM209 708v-708h-147v708h147z" />
<glyph unicode="&#x12b;" horiz-adv-x="250" d="M10 576v103h229v-103h-229zM196 517v-517h-142v517h142z" />
<glyph unicode="&#x12e;" horiz-adv-x="271" d="M217 -112l42 -64q-57 -60 -121 -60q-67 0 -96 39.5t-14 95t65 101.5h-31v708h147v-708q-64 -50 -62 -94q4 -29 34 -31q20 0 36 13z" />
<glyph unicode="&#x12f;" horiz-adv-x="249" d="M123 560q-34 0 -58 24.5t-24 59.5t23.5 59t58.5 24q37 0 60.5 -23.5t23.5 -59.5t-23.5 -60t-60.5 -24zM208 -112l42 -64q-57 -60 -121 -60q-67 0 -95.5 39.5t-13 95t65.5 101.5h-32v517h142v-517h-11q-66 -74 -46 -109q8 -16 33 -16q20 0 36 13z" />
<glyph unicode="&#x130;" horiz-adv-x="271" d="M47 842q0 37 25.5 61.5t63.5 24.5t63 -24.5t25 -61.5t-25 -61t-63 -24t-63.5 24t-25.5 61zM209 708v-708h-147v708h147z" />
<glyph unicode="&#x131;" horiz-adv-x="249" d="M196 517v-517h-142v517h142z" />
<glyph unicode="&#x132;" horiz-adv-x="869" d="M209 708v-708h-147v708h147zM497 708h315v-486q0 -109 -80.5 -170.5t-188.5 -61.5q-97 0 -174 61t-91 174l142 28q10 -56 46 -87.5t80 -31.5q47 0 82.5 23.5t35.5 64.5v347h-167v139z" />
<glyph unicode="&#x133;" horiz-adv-x="494" d="M39 644q0 35 23.5 59t58.5 24q37 0 60.5 -23.5t23.5 -59.5t-23.5 -60t-60.5 -24q-34 0 -58 24.5t-24 59.5zM54 519h139v-519h-139v519zM286 643q0 36 24 60t59 24t59.5 -24t24.5 -60q0 -35 -24.5 -59t-59.5 -24t-59 24t-24 59zM231 -76v-107q103 -21 156 30.5t53 143.5 v528h-139v-528q0 -74 -70 -67z" />
<glyph unicode="&#x136;" horiz-adv-x="633" d="M209 413l252 295h179l-304 -347l304 -361h-182l-221 263l-28 -27v-236h-147v708h147v-295zM392 -69l-68 -175h-129l52 175h145z" />
<glyph unicode="&#x137;" horiz-adv-x="510" d="M193 322l150 196h162l-206 -250q31 -41 102.5 -132.5t104.5 -135.5h-161l-143 189l-9 -8v-181h-139v707h139v-385zM346 -69l-68 -175h-129l52 175h145z" />
<glyph unicode="&#x139;" horiz-adv-x="530" d="M314 898l-129 -142h-136l95 142h170zM62 0v708h147v-560h306v-148h-453z" />
<glyph unicode="&#x13a;" horiz-adv-x="278" d="M297 898l-129 -142h-136l95 142h170zM271 111v-119q-20 -2 -29 -2q-96 0 -144.5 53.5t-48.5 138.5v526h139v-526q0 -31 21 -51t62 -20z" />
<glyph unicode="&#x13b;" horiz-adv-x="530" d="M62 0v708h147v-560h306v-148h-453zM366 -69l-68 -175h-129l52 175h145z" />
<glyph unicode="&#x13c;" horiz-adv-x="278" d="M271 111v-119q-20 -2 -29 -2q-96 0 -144.5 53.5t-48.5 138.5v526h139v-526q0 -31 21 -51t62 -20zM255 -79l-68 -175h-129l52 175h145z" />
<glyph unicode="&#x13d;" horiz-adv-x="532" d="M62 0v708h147v-560h306v-148h-453zM493 708l-67 -175h-127l52 175h142z" />
<glyph unicode="&#x13e;" horiz-adv-x="289" d="M271 111v-119q-20 -2 -29 -2q-96 0 -144.5 53.5t-48.5 138.5v526h139v-526q0 -31 21 -51t62 -20zM369 708l-45 -166h-106l28 166h123z" />
<glyph unicode="&#x13f;" horiz-adv-x="537" d="M62 0v708h147v-560h306v-148h-453zM283 390q0 37 24.5 62t62.5 25q36 0 60 -25t24 -62q0 -36 -24 -60.5t-60 -24.5q-38 0 -62.5 24.5t-24.5 60.5z" />
<glyph unicode="&#x140;" horiz-adv-x="358" d="M271 111v-119q-20 -2 -29 -2q-96 0 -144.5 53.5t-48.5 138.5v526h139v-526q0 -31 21 -51t62 -20zM221 376q0 33 22.5 56t56.5 23q33 0 54.5 -23t21.5 -56t-21.5 -55t-54.5 -22q-34 0 -56.5 22t-22.5 55z" />
<glyph unicode="&#x141;" horiz-adv-x="556" d="M528 149v-149h-439v246l-48 -25l-45 83l93 51v353h148v-272l87 47l45 -91l-132 -69v-174h291z" />
<glyph unicode="&#x142;" horiz-adv-x="330" d="M232 361v-179q0 -31 21 -51t62 -20v-119q-20 -2 -29 -2q-96 0 -144.5 53.5t-48.5 138.5v105l-51 -27l-38 76l89 48v324h139v-250l57 31l40 -76z" />
<glyph unicode="&#x143;" horiz-adv-x="679" d="M518 898l-129 -142h-136l95 142h170zM481 194l10 2q-18 103 -21 150v362h147v-708h-157l-216 372l-43 96l-10 -2l19 -121v-345h-148v708h145l224 -386z" />
<glyph unicode="&#x144;" horiz-adv-x="515" d="M438 718l-129 -142h-136l95 142h170zM53 0v483q92 45 187 45q62 0 111 -18t82 -62t33 -109v-339h-138v334q0 34 -23 51.5t-56 17.5q-32 0 -57 -14v-389h-139z" />
<glyph unicode="&#x145;" horiz-adv-x="679" d="M481 194l10 2q-18 103 -21 150v362h147v-708h-157l-216 372l-43 96l-10 -2l19 -121v-345h-148v708h145l224 -386zM417 -69l-68 -175h-129l52 175h145z" />
<glyph unicode="&#x146;" horiz-adv-x="515" d="M53 0v483q92 45 187 45q62 0 111 -18t82 -62t33 -109v-339h-138v334q0 34 -23 51.5t-56 17.5q-32 0 -57 -14v-389h-139zM337 -69l-68 -175h-129l52 175h145z" />
<glyph unicode="&#x147;" horiz-adv-x="679" d="M285 756l-136 142h157l36 -41l36 41h161l-138 -142h-116zM481 194l10 2q-18 103 -21 150v362h147v-708h-157l-216 372l-43 96l-10 -2l19 -121v-345h-148v708h145l224 -386z" />
<glyph unicode="&#x148;" horiz-adv-x="515" d="M205 576l-136 142h157l36 -41l36 41h161l-138 -142h-116zM53 0v483q92 45 187 45q62 0 111 -18t82 -62t33 -109v-339h-138v334q0 34 -23 51.5t-56 17.5q-32 0 -57 -14v-389h-139z" />
<glyph unicode="&#x14a;" horiz-adv-x="679" d="M617 708v-717q0 -92 -53 -143.5t-156 -30.5v107q70 -7 70 67v9h-18l-216 372l-43 96l-10 -2l19 -121v-345h-148v708h145l224 -386l50 -128l10 2q-18 103 -21 150v362h147z" />
<glyph unicode="&#x14b;" horiz-adv-x="514" d="M239 528q62 0 111 -18t82 -62t33 -109v-361q0 -92 -53 -143.5t-156 -30.5v107q71 -7 71 67v356q0 34 -23 51.5t-56 17.5q-32 0 -57 -14v-389h-139v483q92 45 187 45z" />
<glyph unicode="&#x14c;" horiz-adv-x="666" d="M198 786v103h269v-103h-269zM43 225v257q0 76 43 131t107.5 80.5t139.5 24.5q118 0 204 -62.5t86 -173.5v-257q0 -111 -86 -173.5t-204 -62.5q-75 0 -139.5 25t-107.5 80.5t-43 130.5zM189 482v-257q0 -42 42.5 -65.5t101.5 -23.5q59 1 101 24t42 65v257q0 43 -43 67 t-101 23q-57 0 -100 -24t-43 -66z" />
<glyph unicode="&#x14d;" horiz-adv-x="494" d="M113 586v103h269v-103h-269zM40 174v169q0 87 61.5 135.5t146.5 49.5q84 -1 145.5 -49.5t61.5 -135.5v-169q0 -88 -61 -135.5t-146 -48.5q-85 1 -146.5 48.5t-61.5 135.5zM248 403q-27 0 -48 -14t-21 -37v-181q0 -24 21.5 -40t47.5 -16q25 0 46.5 16t21.5 40v181 q0 23 -21 37t-47 14z" />
<glyph unicode="&#x150;" horiz-adv-x="666" d="M391 916l-126 -149h-132l96 149h162zM604 916l-125 -149h-133l96 149h162zM43 225v257q0 76 43 131t107.5 80.5t139.5 24.5q118 0 204 -62.5t86 -173.5v-257q0 -111 -86 -173.5t-204 -62.5q-75 0 -139.5 25t-107.5 80.5t-43 130.5zM189 482v-257q0 -42 42.5 -65.5 t101.5 -23.5q59 1 101 24t42 65v257q0 43 -43 67t-101 23q-57 0 -100 -24t-43 -66z" />
<glyph unicode="&#x151;" horiz-adv-x="495" d="M305 705l-101 -138h-122l79 138h144zM492 705l-101 -138h-122l79 138h144zM40 174v169q0 87 61.5 135.5t146.5 49.5q84 -1 145.5 -49.5t61.5 -135.5v-169q0 -88 -61 -135.5t-146 -48.5q-85 1 -146.5 48.5t-61.5 135.5zM248 403q-27 0 -48 -14t-21 -37v-181 q0 -24 21.5 -40t47.5 -16q25 0 46.5 16t21.5 40v181q0 23 -21 37t-47 14z" />
<glyph unicode="&#x152;" horiz-adv-x="855" d="M543 559v-133h244v-147h-244v-132h271v-147h-407v34q-54 -36 -119.5 -39.5t-119 20.5t-89.5 75t-33 116v289q0 68 39.5 120.5t95 76t118.5 19t108 -40.5v37h407v-148h-271zM335 121q47 0 72 27v399q-41 36 -98 36q-46 0 -81.5 -25.5t-34.5 -63.5v-286q0 -43 41.5 -65 t100.5 -22z" />
<glyph unicode="&#x153;" horiz-adv-x="751" d="M616 144l77 -69q-28 -41 -74 -63t-96 -22q-88 0 -143 69q-51 -69 -140 -69q-85 0 -142.5 51t-57.5 136v165q0 84 60.5 135t139.5 51q96 0 143 -71q48 71 144 71q87 0 139.5 -49.5t52.5 -135.5v-139h-269v-23q0 -33 24.5 -51.5t58.5 -18.5q25 0 48.5 9.5t34.5 23.5z M593 307v42q0 25 -22.5 39t-49 14t-49 -14t-22.5 -39v-42h143zM244 400q-26 -1 -47.5 -16t-21.5 -37v-170q1 -27 20.5 -43t48.5 -16t49.5 16.5t21.5 42.5v171q0 22 -21.5 37.5t-49.5 14.5z" />
<glyph unicode="&#x154;" horiz-adv-x="632" d="M470 898l-129 -142h-136l95 142h170zM463 0l-201 259h-52v-259h-148v708h279q113 0 181.5 -55.5t71.5 -170.5q0 -181 -161 -213l211 -269h-181zM210 393h131q106 0 106 88q0 82 -106 79h-131v-167z" />
<glyph unicode="&#x155;" horiz-adv-x="340" d="M366 718l-129 -142h-136l95 142h170zM252 528q29 0 73 -10v-112q-48 13 -92.5 -4.5t-44.5 -59.5v-342h-139v344q0 87 62 135.5t141 48.5z" />
<glyph unicode="&#x156;" horiz-adv-x="632" d="M463 0l-201 259h-52v-259h-148v708h279q113 0 181.5 -55.5t71.5 -170.5q0 -181 -161 -213l211 -269h-181zM210 393h131q106 0 106 88q0 82 -106 79h-131v-167zM410 -69l-68 -175h-129l52 175h145z" />
<glyph unicode="&#x157;" horiz-adv-x="340" d="M252 528q29 0 73 -10v-112q-48 13 -92.5 -4.5t-44.5 -59.5v-342h-139v344q0 87 62 135.5t141 48.5zM196 -69l-68 -175h-129l52 175h145z" />
<glyph unicode="&#x158;" horiz-adv-x="632" d="M237 756l-136 142h157l36 -41l36 41h161l-138 -142h-116zM463 0l-201 259h-52v-259h-148v708h279q113 0 181.5 -55.5t71.5 -170.5q0 -181 -161 -213l211 -269h-181zM210 393h131q106 0 106 88q0 82 -106 79h-131v-167z" />
<glyph unicode="&#x159;" horiz-adv-x="340" d="M154 571l-123 140h144l35 -41l35 41h148l-125 -140h-114zM252 528q29 0 73 -10v-112q-48 13 -92.5 -4.5t-44.5 -59.5v-342h-139v344q0 87 62 135.5t141 48.5z" />
<glyph unicode="&#x15a;" horiz-adv-x="568" d="M469 900l-129 -142h-136l95 142h170zM26 125l111 85q23 -37 66 -57.5t84 -21t72.5 18.5t33.5 55q2 41 -33 58.5t-103 26.5q-226 35 -224 225q6 96 81 150t177 54q156 0 239 -125l-121 -81q-44 67 -118 67q-45 0 -75.5 -17.5t-32.5 -52.5v-1q0 -25 19 -41.5t34 -21 t57 -13.5l12 -3q53 -10 91 -23.5t74.5 -39t55 -69t15.5 -103.5q-9 -95 -87.5 -150t-181.5 -55q-71 0 -136.5 34.5t-109.5 100.5z" />
<glyph unicode="&#x15b;" horiz-adv-x="424" d="M393 708l-129 -142h-136l95 142h170zM25 78l66 90q61 -58 125 -58q31 0 42 23q10 23 -3 42t-47 24q-82 14 -125.5 61.5t-44.5 107.5q-1 65 47 112.5t130 47.5q98 0 165 -54l-69 -95q-13 13 -37.5 22.5t-46.5 9.5q-18 0 -31.5 -10.5t-15.5 -31.5t22.5 -37t46.5 -20 q149 -38 149 -152q0 -81 -54.5 -125.5t-132.5 -44.5q-120 0 -186 88z" />
<glyph unicode="&#x15e;" horiz-adv-x="568" d="M305 430q53 -10 91 -23.5t74.5 -39t55 -69t15.5 -103.5q-7 -77 -61 -128t-133 -69l-22 -48q47 -4 65.5 -41.5t1.5 -82.5q-21 -56 -90 -69t-145 40l28 64q34 -22 60.5 -19.5t33.5 24.5q6 19 -11.5 34t-62.5 15l39 76q-64 7 -121.5 41t-96.5 93l111 85q23 -37 66 -57.5 t84 -21t72.5 18.5t33.5 55q2 41 -33 58.5t-103 26.5q-226 35 -224 225q6 96 81 150t177 54q156 0 239 -125l-121 -81q-44 67 -118 67q-45 0 -75.5 -17.5t-32.5 -52.5v-1q0 -25 19 -41.5t34 -21t57 -13.5z" />
<glyph unicode="&#x15f;" horiz-adv-x="424" d="M398 160q0 -65 -36.5 -107.5t-95.5 -56.5l-20 -43q46 -4 63.5 -40t1.5 -79q-20 -54 -86.5 -66.5t-139.5 38.5l27 61q33 -21 58.5 -18.5t31.5 23.5q6 18 -11 32.5t-60 14.5l37 74q-89 13 -143 85l66 90q61 -58 125 -58q31 0 42 23q10 23 -3 42t-47 24q-82 14 -125.5 61.5 t-44.5 107.5q-1 65 47 112.5t130 47.5q98 0 165 -54l-69 -95q-13 13 -37.5 22.5t-46.5 9.5q-18 0 -31.5 -10.5t-15.5 -31.5t22.5 -37t46.5 -20q149 -38 149 -152z" />
<glyph unicode="&#x160;" horiz-adv-x="568" d="M236 758l-136 142h157l36 -41l36 41h161l-138 -142h-116zM26 125l111 85q23 -37 66 -57.5t84 -21t72.5 18.5t33.5 55q2 41 -33 58.5t-103 26.5q-226 35 -224 225q6 96 81 150t177 54q156 0 239 -125l-121 -81q-44 67 -118 67q-45 0 -75.5 -17.5t-32.5 -52.5v-1 q0 -25 19 -41.5t34 -21t57 -13.5l12 -3q53 -10 91 -23.5t74.5 -39t55 -69t15.5 -103.5q-9 -95 -87.5 -150t-181.5 -55q-71 0 -136.5 34.5t-109.5 100.5z" />
<glyph unicode="&#x161;" horiz-adv-x="423" d="M410 566h-161l-36 41l-36 -41h-157l136 142h116zM24 78l66 90q61 -58 125 -58q31 0 42 23q10 23 -3 42t-47 24q-82 14 -125.5 61.5t-44.5 107.5q-1 65 47 112.5t130 47.5q98 0 165 -54l-69 -95q-13 13 -37.5 22.5t-46.5 9.5q-18 0 -31.5 -10.5t-15.5 -31.5t22.5 -37 t46.5 -20q149 -38 149 -152q0 -81 -54.5 -125.5t-132.5 -44.5q-120 0 -186 88z" />
<glyph unicode="&#x162;" horiz-adv-x="584" d="M569 561h-203v-561h-148v561h-203v148h554v-148zM369 -69l-68 -175h-129l52 175h145z" />
<glyph unicode="&#x163;" horiz-adv-x="319" d="M260 -69l-68 -175h-129l52 175h145zM296 121v-114q-106 -35 -176 11t-69 164v451h128l10 -115h92v-127h-92v-208q0 -44 25.5 -58.5t81.5 -3.5z" />
<glyph unicode="&#x164;" horiz-adv-x="584" d="M237 756l-136 142h157l36 -41l36 41h161l-138 -142h-116zM569 561h-203v-561h-148v561h-203v148h554v-148z" />
<glyph unicode="&#x165;" horiz-adv-x="319" d="M390 708l-53 -166h-108l38 166h123zM296 121v-114q-106 -35 -176 11t-69 164v451h128l10 -115h92v-127h-92v-208q0 -44 25.5 -58.5t81.5 -3.5z" />
<glyph unicode="&#x166;" horiz-adv-x="592" d="M370 561v-159h120v-106h-120v-296h-148v296h-121v106h121v159h-203v148h554v-148h-203z" />
<glyph unicode="&#x167;" horiz-adv-x="329" d="M198 227v-44q0 -85 107 -64v-112q-106 -35 -176 11t-69 164v45h-45v83h45v323h128l10 -115h92v-127h-92v-81h65v-83h-65z" />
<glyph unicode="&#x16a;" horiz-adv-x="668" d="M201 776v103h269v-103h-269zM204 708v-475q0 -47 38 -73t91 -26q55 0 93 26t38 73v475h148v-475q0 -115 -82 -179t-197 -64q-113 0 -195 64t-82 179v475h148z" />
<glyph unicode="&#x16b;" horiz-adv-x="516" d="M116 589v107h280v-107h-280zM464 518v-490q-106 -38 -196 -38q-96 0 -157 45t-61 147v336h139v-328q0 -43 24.5 -64t62.5 -21q26 0 50 9v404h138z" />
<glyph unicode="&#x16e;" horiz-adv-x="668" d="M338 972q55 0 86.5 -35.5t31.5 -78.5t-31.5 -78.5t-86.5 -35.5q-57 0 -89.5 35.5t-32.5 78.5t32.5 78.5t89.5 35.5zM338 906q-32 0 -44.5 -24t1 -48t43.5 -24t42 24t0 48t-42 24zM204 708v-475q0 -47 38 -73t91 -26q55 0 93 26t38 73v475h148v-475q0 -115 -82 -179 t-197 -64q-113 0 -195 64t-82 179v475h148z" />
<glyph unicode="&#x16f;" horiz-adv-x="516" d="M259 773q55 0 86.5 -35.5t31.5 -78.5t-31.5 -78.5t-86.5 -35.5q-57 0 -89.5 35.5t-32.5 78.5t32.5 78.5t89.5 35.5zM259 707q-32 0 -44.5 -24t1 -48t43.5 -24t42 24t0 48t-42 24zM464 518v-490q-106 -38 -196 -38q-96 0 -157 45t-61 147v336h139v-328q0 -43 24.5 -64 t62.5 -21q26 0 50 9v404h138z" />
<glyph unicode="&#x170;" horiz-adv-x="668" d="M394 906l-126 -149h-132l96 149h162zM607 906l-125 -149h-133l96 149h162zM204 708v-475q0 -47 38 -73t91 -26q55 0 93 26t38 73v475h148v-475q0 -115 -82 -179t-197 -64q-113 0 -195 64t-82 179v475h148z" />
<glyph unicode="&#x171;" horiz-adv-x="516" d="M314 706l-124 -146h-129l94 146h159zM523 706l-123 -146h-130l94 146h159zM464 518v-490q-106 -38 -196 -38q-96 0 -157 45t-61 147v336h139v-328q0 -43 24.5 -64t62.5 -21q26 0 50 9v404h138z" />
<glyph unicode="&#x172;" horiz-adv-x="668" d="M391 -82q0 -19 11 -31t29 -12q20 0 36 13l42 -64q-57 -60 -121 -60q-65 0 -93.5 37t-16.5 89.5t56 98.5q-113 0 -195.5 64t-82.5 179v476h148v-476q0 -38 27 -64t65 -31.5t76 0.5t65 31.5t27 63.5v476h148v-476q0 -47 -23 -89t-55 -72t-64.5 -55.5t-55.5 -50.5t-23 -47z " />
<glyph unicode="&#x173;" horiz-adv-x="517" d="M328 -15l-3 5q-41 -3 -80.5 -2t-74.5 14t-62 34t-42.5 58.5t-15.5 87.5v336h139v-337q2 -46 45 -66.5t92 -3.5v407h138v-496l-19 -19q-69 -76 -50 -112q9 -16 34 -16q20 0 36 13l42 -64q-57 -60 -121 -60t-92.5 36t-18 87t52.5 98z" />
<glyph unicode="&#x174;" horiz-adv-x="920" d="M657 756h-161l-36 41l-36 -41h-157l136 142h116zM208 0l-205 708h152l101 -370l22 -165h9l24 166q21 69 46.5 141t43.5 130h119l86 -273l29 -171h9l19 171l103 371h151l-204 -708h-144l-91 273l-16 85h-8q-1 -6 -3 -14.5t-6 -27.5t-7 -32l-3 -12l-83 -272h-144z" />
<glyph unicode="&#x175;" horiz-adv-x="701" d="M547 566h-161l-36 41l-36 -41h-157l136 142h116zM334 187l-41 -187h-130l-157 518h137l58 -209l16 -135h2l15 126l66 218h101l64 -217l15 -127h2l18 136l54 208h139l-153 -518h-130l-43 187l-16 141h-2z" />
<glyph unicode="&#x176;" horiz-adv-x="628" d="M510 756h-161l-36 41l-36 -41h-157l136 142h116zM387 0h-147v271l-246 437h169l150 -296l150 296h171l-247 -437v-271z" />
<glyph unicode="&#x177;" horiz-adv-x="517" d="M453 566h-161l-36 41l-36 -41h-157l136 142h116zM463 518v-514q0 -100 -59.5 -154t-155.5 -54q-112 0 -181 69l66 87q40 -38 99 -38q47 0 72.5 22t24.5 71q-51 -17 -88 -17q-87 0 -138.5 44.5t-51.5 126.5v357h134v-355q0 -61 80 -61q30 0 58 16v400h140z" />
<glyph unicode="&#x178;" horiz-adv-x="628" d="M128 830q0 33 22.5 55t54.5 22q31 0 54 -22.5t23 -54.5q0 -31 -23 -53t-54 -22q-32 0 -54.5 22t-22.5 53zM345 830q0 33 22 55t55 22t55.5 -22t22.5 -55q0 -32 -22.5 -53.5t-55.5 -21.5t-55 21.5t-22 53.5zM387 0h-147v271l-246 437h169l150 -296l150 296h171l-247 -437 v-271z" />
<glyph unicode="&#x179;" horiz-adv-x="597" d="M478 898l-129 -142h-136l95 142h170zM37 708h499l41 -67l-353 -509h339v-132h-510l-35 67l353 505h-334v136z" />
<glyph unicode="&#x17a;" horiz-adv-x="453" d="M408 708l-129 -142h-136l95 142h170zM40 518h357l30 -49l-216 -350h209v-119h-369l-30 50l215 349h-196v119z" />
<glyph unicode="&#x17b;" horiz-adv-x="597" d="M211 842q0 37 25.5 61.5t63.5 24.5t63 -24.5t25 -61.5t-25 -61t-63 -24t-63.5 24t-25.5 61zM37 708h499l41 -67l-353 -509h339v-132h-510l-35 67l353 505h-334v136z" />
<glyph unicode="&#x17c;" horiz-adv-x="453" d="M141 652q0 37 25.5 61.5t63.5 24.5t63 -24.5t25 -61.5t-25 -61t-63 -24t-63.5 24t-25.5 61zM40 518h357l30 -49l-216 -350h209v-119h-369l-30 50l215 349h-196v119z" />
<glyph unicode="&#x17d;" horiz-adv-x="597" d="M245 756l-136 142h157l36 -41l36 41h161l-138 -142h-116zM37 708h499l41 -67l-353 -509h339v-132h-510l-35 67l353 505h-334v136z" />
<glyph unicode="&#x17e;" horiz-adv-x="453" d="M175 566l-136 142h157l36 -41l36 41h161l-138 -142h-116zM40 518h357l30 -49l-216 -350h209v-119h-369l-30 50l215 349h-196v119z" />
<glyph unicode="&#x192;" horiz-adv-x="480" d="M1 -93l32 94q28 -13 50 -0.5t28 48.5l54 281h-82v114h103l19 106v-1q12 68 51 114.5t114 46.5q42 0 100 -31l-48 -98q-29 14 -49 2t-26 -45l-17 -94h80v-114h-100l-57 -310q-16 -91 -93.5 -126t-158.5 13z" />
<glyph unicode="&#x218;" horiz-adv-x="568" d="M26 125l111 85q23 -37 66 -57.5t84 -21t72.5 18.5t33.5 55q2 41 -33 58.5t-103 26.5q-226 35 -224 225q6 96 81 150t177 54q156 0 239 -125l-121 -81q-44 67 -118 67q-45 0 -75.5 -17.5t-32.5 -52.5v-1q0 -25 19 -41.5t34 -21t57 -13.5l12 -3q53 -10 91 -23.5t74.5 -39 t55 -69t15.5 -103.5q-9 -95 -87.5 -150t-181.5 -55q-71 0 -136.5 34.5t-109.5 100.5zM349 -70l-68 -175h-129l52 175h145z" />
<glyph unicode="&#x219;" horiz-adv-x="424" d="M25 78l66 90q61 -58 125 -58q31 0 42 23q10 23 -3 42t-47 24q-82 14 -125.5 61.5t-44.5 107.5q-1 65 47 112.5t130 47.5q98 0 165 -54l-69 -95q-13 13 -37.5 22.5t-46.5 9.5q-18 0 -31.5 -10.5t-15.5 -31.5t22.5 -37t46.5 -20q149 -38 149 -152q0 -81 -54.5 -125.5 t-132.5 -44.5q-120 0 -186 88zM288 -69l-68 -175h-129l52 175h145z" />
<glyph unicode="&#x21a;" horiz-adv-x="584" d="M569 561h-203v-561h-148v561h-203v148h554v-148zM369 -69l-68 -175h-129l52 175h145z" />
<glyph unicode="&#x21b;" horiz-adv-x="319" d="M260 -69l-68 -175h-129l52 175h145zM296 121v-114q-106 -35 -176 11t-69 164v451h128l10 -115h92v-127h-92v-208q0 -44 25.5 -58.5t81.5 -3.5z" />
<glyph unicode="&#x2c6;" horiz-adv-x="441" d="M400 756h-161l-36 41l-36 -41h-157l136 142h116z" />
<glyph unicode="&#x2c7;" horiz-adv-x="332" d="M78 756l-136 142h157l36 -41l36 41h161l-138 -142h-116z" />
<glyph unicode="&#x2c9;" horiz-adv-x="323" d="M-5 572v123h309v-123h-309z" />
<glyph unicode="&#x2d8;" horiz-adv-x="287" d="M219 898h116q0 -41 -17.5 -73t-45.5 -48.5t-62 -24t-68.5 0t-62.5 24t-45.5 48.5t-17.5 73h121q0 -25 20.5 -35t41 0t20.5 35z" />
<glyph unicode="&#x2d9;" horiz-adv-x="240" d="M23 842q0 37 25.5 61.5t63.5 24.5t63 -24.5t25 -61.5t-25 -61t-63 -24t-63.5 24t-25.5 61z" />
<glyph unicode="&#x2da;" horiz-adv-x="240" d="M110 972q55 0 86.5 -35.5t31.5 -78.5t-31.5 -78.5t-86.5 -35.5q-57 0 -89.5 35.5t-32.5 78.5t32.5 78.5t89.5 35.5zM110 906q-32 0 -44.5 -24t1 -48t43.5 -24t42 24t0 48t-42 24z" />
<glyph unicode="&#x2db;" horiz-adv-x="252" d="M66 2l100 1q-69 -76 -50 -112q9 -16 34 -16q20 0 36 13l42 -64q-57 -60 -121 -60q-68 0 -96 40t-12 96t67 102z" />
<glyph unicode="&#x2dc;" horiz-adv-x="305" d="M46 763l-73 37q9 49 40.5 78.5t66.5 29.5q17 0 37.5 -7.5t35.5 -15t29.5 -12.5t26.5 1t20 25l72 -36q-18 -55 -42.5 -79.5t-60.5 -24.5q-19 0 -43.5 11t-41 20t-35 4.5t-32.5 -31.5z" />
<glyph unicode="&#x2dd;" horiz-adv-x="487" d="M261 906l-126 -149h-132l96 149h162zM474 906l-125 -149h-133l96 149h162z" />
<glyph unicode="&#x326;" horiz-adv-x="0" d="M236 -69l-68 -175h-129l52 175h145z" />
<glyph unicode="&#x3a9;" horiz-adv-x="775" d="M40 143h100q-95 78 -95 232q0 81 29 146.5t77.5 105.5t108.5 61.5t125 21.5q89 0 166.5 -36.5t129 -113.5t51.5 -181q0 -75 -26.5 -138.5t-74.5 -97.5h102v-143h-314v108q54 17 94 58.5t59.5 92.5t18.5 106.5t-22 101t-69 75t-115 29.5q-62 0 -107.5 -29.5t-67 -75.5 t-24 -101.5t15 -107t57.5 -93t95 -57.5v-107h-314v143z" />
<glyph unicode="&#x3bc;" horiz-adv-x="525" d="M349 -1l-11 34q-23 -41 -71.5 -42.5t-71.5 44.5v-222h-141v703h142v-314q0 -47 33.5 -65t66.5 1t33 62v316h142l2 -518z" />
<glyph unicode="&#x3c0;" horiz-adv-x="569" d="M512 138l1 -142q-104 6 -145 47t-41 118v220h-78v-381h-138v377q-25 -4 -51 -14l-23 -1l-28 109q30 19 41.5 25t39.5 14t60 8h391l-13 -137h-61v-216q0 -16 10 -22t35 -5z" />
<glyph unicode="&#x401;" horiz-adv-x="583" d="M116 830q0 33 22.5 55t54.5 22q31 0 54 -22.5t23 -54.5q0 -31 -23 -53t-54 -22q-32 0 -54.5 22t-22.5 53zM333 830q0 33 22 55t55 22t55.5 -22t22.5 -55q0 -32 -22.5 -53.5t-55.5 -21.5t-55 21.5t-22 53.5zM210 565v-139h305v-143h-305v-140h332v-143h-480v709h480v-144 h-332z" />
<glyph unicode="&#x410;" horiz-adv-x="634" d="M386 708l254 -708h-154l-62 162h-211l-59 -162h-157l248 708h141zM290 450l-40 -153h136l-45 154l-22 101h-7z" />
<glyph unicode="&#x411;" horiz-adv-x="616" d="M209 439h130q135 0 195 -52t60 -164q0 -107 -67.5 -165t-182.5 -58h-282v708h475v-128h-328v-141zM209 132h134q54 0 80 23.5t26 74.5q0 97 -109 97h-131v-195z" />
<glyph unicode="&#x412;" horiz-adv-x="625" d="M564 501q0 -34 -17 -69.5t-50 -54.5q61 -30 82.5 -83t12.5 -114q-11 -79 -71 -129.5t-174 -50.5h-285v709h280q96 0 159 -54.5t63 -153.5zM209 431h133q48 0 69.5 33.5t2.5 67t-72 33.5h-133v-134zM209 143h133q49 0 77 25.5t28 55.5t-27.5 55.5t-77.5 25.5h-133v-162z " />
<glyph unicode="&#x413;" horiz-adv-x="514" d="M209 0h-147v708h439v-140h-292v-568z" />
<glyph unicode="&#x414;" horiz-adv-x="710" d="M682 -136h-148v136h-368v-136h-149v270h10q23 1 40.5 9t30 18.5t21.5 31.5t14 39.5t9 52t5.5 59t4.5 70.5q1 11 1 17t0.5 15.5t1.5 17.5l17 244h443v-574h67v-270zM308 568l-15 -219q-9 -142 -43 -215h218v434h-160z" />
<glyph unicode="&#x415;" horiz-adv-x="583" d="M210 565v-139h305v-143h-305v-140h332v-143h-480v709h480v-144h-332z" />
<glyph unicode="&#x416;" horiz-adv-x="942" d="M763 0l-192 285l-26 -29v-256h-148v256l-26 29l-192 -285h-184l265 364l-266 344h180l223 -297v297h148v-297l223 297h180l-266 -344l266 -364h-185z" />
<glyph unicode="&#x417;" horiz-adv-x="563" d="M273 718q111 0 171 -54t60 -148q0 -41 -19.5 -79.5t-54.5 -58.5q101 -52 101 -169q-1 -106 -73 -162.5t-197 -56.5q-83 0 -150 35t-106 102l101 76q63 -79 149 -79q129 0 129 93q0 94 -114 94h-103v114h100q46 0 72.5 21t26.5 62q0 39 -27 60t-77 21q-77 0 -140 -59 l-84 78q84 110 235 110z" />
<glyph unicode="&#x418;" horiz-adv-x="686" d="M477 353l12 113l-4 1l-59 -115l-218 -352h-146v708h147v-381l-11 -100l4 -1l55 111l226 371h141v-708h-147v353z" />
<glyph unicode="&#x419;" horiz-adv-x="686" d="M398 934h120q-3 -79 -54.5 -122.5t-122.5 -43.5t-122.5 44t-53.5 122h120q5 -52 56 -52t57 52zM477 357l12 109l-4 1l-58 -113l-219 -354h-146v708h147v-382l-10 -99l3 -1l56 112l225 370h141v-708h-147v357z" />
<glyph unicode="&#x41a;" horiz-adv-x="635" d="M644 708l-301 -346l299 -362h-186l-218 271l-29 -29v-242h-147v708h147v-294l250 294h185z" />
<glyph unicode="&#x41b;" horiz-adv-x="700" d="M491 568h-170l-13 -219q-4 -63 -13.5 -113t-30.5 -97.5t-52.5 -78.5t-81 -47.5t-113.5 -12.5v138q90 -3 120 81q19 50 28 201q2 29 3 44l16 244h455v-708h-148v568z" />
<glyph unicode="&#x41c;" horiz-adv-x="778" d="M542 320l-97 -227h-110l-98 228l-34 97h-10l16 -137v-281h-147v708h154l172 -407l174 407h154v-708h-147v282l18 137h-11z" />
<glyph unicode="&#x41d;" horiz-adv-x="679" d="M209 280v-280h-147v708h147v-281h261v281h147v-708h-147v280h-261z" />
<glyph unicode="&#x41e;" horiz-adv-x="665" d="M43 226v256q0 75 42.5 130.5t107 80.5t139.5 25q118 0 204 -62.5t86 -173.5v-256q0 -111 -85.5 -173.5t-203.5 -62.5t-204 62.5t-86 173.5zM189 482v-256q0 -47 42.5 -72.5t101.5 -25.5q58 0 100.5 26t42.5 72v256q0 49 -43 74.5t-102 25.5q-58 0 -100 -26.5t-42 -73.5z " />
<glyph unicode="&#x41f;" horiz-adv-x="673" d="M463 568h-254v-568h-147v708h549v-708h-148v568z" />
<glyph unicode="&#x420;" horiz-adv-x="617" d="M62 0v708h279q55 0 100.5 -17t75 -45t50 -65t24.5 -77.5t-0.5 -81t-25 -77t-50 -65t-74.5 -45t-99 -16.5h-134v-219h-146zM208 357h133q51 0 80 31.5t29 70t-29 70t-80 31.5h-133v-203z" />
<glyph unicode="&#x421;" horiz-adv-x="583" d="M446 209l127 -71q-44 -72 -111.5 -110t-140.5 -38q-112 0 -195 62.5t-83 172.5v258q0 110 82.5 172.5t195.5 62.5q75 0 143.5 -39t102.5 -113l-118 -64q-20 38 -58 57.5t-81 18.5q-50 -1 -85.5 -27t-35.5 -68v-258q0 -42 34.5 -67t83.5 -26q42 -1 80.5 18.5t58.5 58.5z " />
<glyph unicode="&#x422;" horiz-adv-x="577" d="M362 0h-148v568h-201v141h551v-141h-202v-568z" />
<glyph unicode="&#x423;" horiz-adv-x="574" d="M211 228l-234 480h167l99 -216l39 -102h4l43 107l94 211h162l-320 -708h-158z" />
<glyph unicode="&#x424;" horiz-adv-x="777" d="M459 708v-60q77 0 139.5 -20.5t105.5 -72.5t43 -129v-144q0 -47 -16 -85t-43.5 -63t-65 -41.5t-78 -24t-85.5 -7.5v-61h-141v61q-45 0 -85.5 7.5t-78 24t-65 41.5t-43.5 63t-16 85v144q0 77 43 129t105.5 72.5t139.5 20.5v60h141zM318 193v322q-141 0 -141 -88v-146 q0 -88 141 -88zM459 515v-322q141 0 141 88v146q0 88 -141 88z" />
<glyph unicode="&#x425;" horiz-adv-x="631" d="M633 0h-180l-142 250l-131 -250h-181l209 353l-207 355h179l131 -252l143 252h179l-224 -356z" />
<glyph unicode="&#x426;" horiz-adv-x="696" d="M668 -136h-141v136h-466v708h147v-568h246v568h147v-568h67v-276z" />
<glyph unicode="&#x427;" horiz-adv-x="628" d="M419 0v255q-58 -49 -143 -49q-102 0 -171.5 61.5t-69.5 173.5v267h147v-267q0 -46 27.5 -70t76.5 -24q86 0 132 43l1 318h147v-708h-147z" />
<glyph unicode="&#x428;" horiz-adv-x="953" d="M62 708h147v-568h193v568h148v-568h193v568h148v-708h-829v708z" />
<glyph unicode="&#x429;" horiz-adv-x="988" d="M960 -136h-141v136h-758v708h147v-568h193v568h148v-568h193v568h148v-568h70v-276z" />
<glyph unicode="&#x42a;" horiz-adv-x="702" d="M294 458h131q131 0 192 -57t61 -168q0 -107 -67.5 -170t-180.5 -63h-283v569h-130v139h277v-250zM294 132h134q105 0 105 103t-108 103h-131v-206z" />
<glyph unicode="&#x42b;" horiz-adv-x="888" d="M209 458h130q132 0 192.5 -56.5t60.5 -168.5q0 -107 -67.5 -170t-180.5 -63h-282v708h147v-250zM679 708h147v-708h-147v708zM209 132h133q106 0 106 103t-108 103h-131v-206z" />
<glyph unicode="&#x42c;" horiz-adv-x="617" d="M210 458h130q132 0 192.5 -56.5t60.5 -168.5q0 -107 -67.5 -170t-180.5 -63h-283v708h148v-250zM210 132h133q105 0 105 103t-107 103h-131v-206z" />
<glyph unicode="&#x42d;" horiz-adv-x="591" d="M269 718q113 0 196 -63.5t83 -173.5v-254q0 -111 -82.5 -173.5t-193.5 -62.5q-76 0 -145.5 39t-108.5 116l129 59q16 -36 51 -54.5t78 -18.5q51 0 88 25.5t37 69.5v66h-211v126h211v62q0 45 -38.5 71.5t-90.5 26.5q-41 0 -76.5 -18t-53.5 -52l-122 52q37 81 104.5 119 t144.5 38z" />
<glyph unicode="&#x42e;" horiz-adv-x="955" d="M621 718q118 0 204.5 -62.5t86.5 -173.5v-256q0 -111 -86.5 -173.5t-204.5 -62.5t-204 62.5t-86 173.5v64h-124v-290h-147v708h147v-283h124v57q0 76 43 131t107 80t140 25zM620 578q-58 -1 -100 -27.5t-42 -73.5v-248q0 -46 42.5 -72.5t100.5 -26.5t101 26t43 73v248 q0 49 -43 75t-102 26z" />
<glyph unicode="&#x42f;" horiz-adv-x="638" d="M428 255h-54l-208 -255h-185l227 268q-169 36 -169 214q1 110 70.5 168t188.5 58h278v-708h-148v255zM428 568h-132q-110 0 -110 -95q0 -47 28.5 -72.5t81.5 -25.5h132v193z" />
<glyph unicode="&#x430;" d="M27 154q0 84 53.5 126.5t130.5 42.5q46 0 92 -16v37q0 72 -80 72q-28 0 -59 -14t-50 -34l-68 73q74 85 187 87q85 0 144.5 -47.5t59.5 -136.5v-316q-101 -38 -195 -38q-107 0 -161 43.5t-54 120.5zM299 104v105q-32 12 -63 12q-38 0 -57.5 -17t-19.5 -46q0 -61 81 -61 q32 0 59 7z" />
<glyph unicode="&#x431;" horiz-adv-x="511" d="M404 745l41 -106q-50 -36 -150 -49q-61 -6 -79 -17q-26 -18 -27 -56v-60q42 30 102 30q81 0 130.5 -47.5t49.5 -131.5v-138q0 -85 -62.5 -132.5t-147.5 -47.5t-148 47.5t-63 132.5v361q0 47 17 80t48 50.5t59 25.5t65 13q111 14 165 45zM263 367q-44 0 -74 -23v-170 q0 -27 21.5 -42.5t50.5 -15.5q28 0 49.5 15.5t21.5 42.5v136q0 28 -20 42.5t-49 14.5z" />
<glyph unicode="&#x432;" horiz-adv-x="513" d="M54 518h220q188 0 188 -133q0 -74 -59 -109q77 -37 77 -133q0 -72 -54 -107.5t-152 -35.5h-220v518zM193 309h77q29 0 46.5 15t17.5 40q-1 53 -66 53h-75v-108zM193 101h77q76 0 77 60q1 34 -19 48t-58 14h-77v-122z" />
<glyph unicode="&#x433;" horiz-adv-x="398" d="M193 0h-139v518h330v-125h-191v-393z" />
<glyph unicode="&#x434;" horiz-adv-x="589" d="M564 -118h-132v118h-279v-118h-133v235h8q28 1 45.5 12t27.5 38.5t14.5 56.5t8.5 84l18 210h361v-401h61v-235zM260 397l-10 -146q-6 -97 -31 -134h149v280h-108z" />
<glyph unicode="&#x435;" d="M339 154l91 -66q-28 -51 -78 -74.5t-103 -23.5q-85 0 -147 48.5t-62 135.5v171q0 88 62.5 135.5t148.5 47.5q84 0 142 -44.5t58 -132.5v-152h-271v-23q0 -29 23 -45t55 -16q57 0 81 39zM320 302v47q0 26 -20 40t-48 14q-29 0 -50.5 -14.5t-21.5 -40.5v-46h140z" />
<glyph unicode="&#x436;" horiz-adv-x="748" d="M582 0l-128 191l-12 -12v-179h-136v179l-13 13l-128 -192h-158l196 273l-199 245h161l141 -189v189h136v-189l140 189h161l-199 -245l197 -273h-159z" />
<glyph unicode="&#x437;" horiz-adv-x="451" d="M218 528q76 1 129.5 -36t53.5 -102q0 -38 -18 -68t-46 -45q82 -35 82 -130q-1 -77 -60 -117t-141 -40q-66 0 -112.5 19.5t-90.5 73.5l84 69q38 -45 101 -45q35 0 58 13t23 39q0 32 -18.5 44.5t-57.5 12.5h-67v102h64q31 0 46 11.5t15 39.5q0 22 -17 35t-47 13 q-51 0 -90 -39l-74 62q58 88 183 88z" />
<glyph unicode="&#x438;" horiz-adv-x="550" d="M356 234l9 98l-3 1l-30 -83l-133 -250h-145v518h139v-246l-7 -99h3l32 82l129 263h146v-518h-140v234z" />
<glyph unicode="&#x439;" horiz-adv-x="550" d="M344 735h116q-2 -76 -50.5 -117.5t-113.5 -41.5q-61 0 -107.5 43t-48.5 116h116q2 -19 14.5 -30.5t29.5 -11.5t30 11t14 31zM356 234l9 98l-3 1l-30 -83l-133 -250h-145v518h139v-246l-7 -99h3l32 82l129 263h146v-518h-140v234z" />
<glyph unicode="&#x43a;" horiz-adv-x="516" d="M348 0l-135 187l-20 -19v-168h-139v518h139v-188l155 188h163l-204 -246l202 -272h-161z" />
<glyph unicode="&#x43b;" horiz-adv-x="549" d="M356 393h-92l-12 -151q-10 -138 -57 -190t-175 -52v117q60 0 78 34t26 144l18 223h353v-518h-139v393z" />
<glyph unicode="&#x43c;" horiz-adv-x="652" d="M458 211l10 91h-4l-95 -229h-86l-95 229h-4l10 -96v-206h-140v518h153l119 -286l119 286h153v-518h-140v211z" />
<glyph unicode="&#x43d;" horiz-adv-x="527" d="M333 208h-140v-208h-139v518h139v-185h140v185h140v-518h-140v208z" />
<glyph unicode="&#x43e;" horiz-adv-x="494" d="M40 174v169q0 87 61.5 135.5t146.5 49.5q84 -1 145.5 -49.5t61.5 -135.5v-169q0 -88 -61 -135.5t-146 -48.5q-85 1 -146.5 48.5t-61.5 135.5zM248 403q-27 0 -48 -14t-21 -37v-181q0 -24 21.5 -40t47.5 -16q25 0 46.5 16t21.5 40v181q0 23 -21 37t-47 14z" />
<glyph unicode="&#x43f;" horiz-adv-x="527" d="M333 393h-140v-393h-139v518h419v-518h-140v393z" />
<glyph unicode="&#x440;" horiz-adv-x="517" d="M57 -190v679q102 39 202 39q215 0 215 -173v-189q0 -86 -56.5 -130.5t-136.5 -45.5q-45 0 -84 18v-198h-140zM197 410v-301q21 -12 54 -12q36 0 60 17.5t24 51.5v196q0 30 -23 45t-59 15q-32 0 -56 -12z" />
<glyph unicode="&#x441;" horiz-adv-x="469" d="M328 171l122 -40q-25 -73 -81.5 -107t-120.5 -34q-84 0 -146 48t-62 135v171q0 87 62 135.5t146 48.5q65 0 121 -33.5t75 -106.5l-119 -37q-8 26 -29.5 39t-47.5 13q-28 0 -48.5 -16t-20.5 -42v-171q0 -27 20.5 -43t48.5 -16q26 0 48.5 14t31.5 42z" />
<glyph unicode="&#x442;" horiz-adv-x="449" d="M294 0h-140v399h-139v119h418v-119h-139v-399z" />
<glyph unicode="&#x443;" horiz-adv-x="517" d="M463 518v-514q0 -100 -59.5 -154t-155.5 -54q-112 0 -181 69l66 87q40 -38 99 -38q47 0 72.5 22t24.5 71q-51 -17 -88 -17q-87 0 -138.5 44.5t-51.5 126.5v357h134v-355q0 -61 80 -61q30 0 58 16v400h140z" />
<glyph unicode="&#x444;" horiz-adv-x="718" d="M428 708v-193q24 13 68 13q83 0 131 -46t48 -127v-192q0 -81 -48 -127t-131 -46q-44 0 -68 13v-187h-136v187q-24 -13 -68 -13q-83 0 -131.5 46t-48.5 127v192q0 81 48.5 127t131.5 46q44 0 68 -13v193h136zM253 411q-29 0 -49 -16t-20 -46v-180q0 -30 20 -46t49 -16 q21 0 39 10v284q-18 10 -39 10zM467 411q-21 0 -39 -10v-284q18 -10 39 -10q29 0 49 16t20 46v180q0 30 -20 46t-49 16z" />
<glyph unicode="&#x445;" horiz-adv-x="521" d="M512 518l-172 -258q25 -36 87 -130.5t87 -129.5h-165l-67 108l-20 53h-7l-23 -55q-60 -95 -67 -106h-157l168 259q-8 12 -27.5 44.5t-54 85.5t-86.5 129h157l72 -118l19 -49h6l18 49q7 10 29.5 50t39.5 68h163z" />
<glyph unicode="&#x446;" horiz-adv-x="553" d="M524 -124h-127l-7 124h-337v518h139v-401h137v401h140v-401h55v-241z" />
<glyph unicode="&#x447;" horiz-adv-x="500" d="M306 0v170q-41 -26 -97 -26q-69 0 -123 42t-54 128v204h140v-183q0 -65 65 -65q38 0 69 17v231h140v-518h-140z" />
<glyph unicode="&#x448;" horiz-adv-x="754" d="M193 122h114v396h140v-396h114v396h139v-518h-646v518h139v-396z" />
<glyph unicode="&#x449;" horiz-adv-x="783" d="M754 -124h-128l-6 124h-567v518h139v-401h114v401h140v-401h114v401h139v-401h55v-241z" />
<glyph unicode="&#x44a;" horiz-adv-x="545" d="M237 345h111q87 0 132 -46.5t45 -130.5q0 -168 -206 -168h-221v413h-81v105h220v-173zM237 101h78q36 0 56.5 18.5t20.5 52.5q1 39 -18.5 57t-58.5 18h-78v-146z" />
<glyph unicode="&#x44b;" horiz-adv-x="740" d="M194 345h111q87 0 132 -46.5t45 -130.5q0 -168 -206 -168h-222v518h140v-173zM547 518h139v-518h-139v518zM194 101h78q36 0 56 18.5t21 52.5q1 39 -19 57t-58 18h-78v-146z" />
<glyph unicode="&#x44c;" horiz-adv-x="501" d="M193 345h111q87 0 132 -46.5t45 -130.5q0 -168 -205 -168h-222v518h139v-173zM193 101h79q36 0 56 18.5t21 52.5q0 75 -78 75h-78v-146z" />
<glyph unicode="&#x44d;" horiz-adv-x="473" d="M222 528q84 0 147.5 -49t63.5 -136v-169q0 -87 -63.5 -135t-147.5 -48q-157 0 -201 132l119 47q21 -61 81 -61q31 0 51.5 14t20.5 45v37h-124v105h124v31q0 28 -21 44.5t-49 16.5q-57 2 -76 -50l-115 47q23 67 76 98t114 31z" />
<glyph unicode="&#x44e;" horiz-adv-x="734" d="M484 528q85 -1 147.5 -49.5t62.5 -135.5v-173q0 -85 -62.5 -132.5t-147.5 -47.5t-148 47.5t-63 132.5v42h-82v-212h-139v518h139v-191h82v25q0 82 64 128.5t147 47.5zM484 402q-28 0 -50 -15t-22 -42v-171q1 -27 22 -42.5t50 -15.5q28 0 49 15.5t22 42.5v171q0 27 -22 42 t-49 15z" />
<glyph unicode="&#x44f;" horiz-adv-x="514" d="M322 192h-29l-131 -192h-159l155 205q-55 13 -87.5 50.5t-32.5 99.5q0 163 208 163h214v-518h-139zM321 417h-76q-75 0 -75 -66q0 -70 78 -70h73v136z" />
<glyph unicode="&#x451;" d="M73 641q0 33 22.5 55t54.5 22q31 0 54 -22.5t23 -54.5q0 -31 -23 -53t-54 -22q-32 0 -54.5 22t-22.5 53zM280 641q0 33 22 55t55 22t55.5 -22t22.5 -55q0 -32 -22.5 -53.5t-55.5 -21.5t-55 21.5t-22 53.5zM339 154l91 -66q-28 -51 -78 -74.5t-103 -23.5q-85 0 -147 48.5 t-62 135.5v171q0 88 62.5 135.5t148.5 47.5q84 0 142 -44.5t58 -132.5v-152h-271v-23q0 -29 23 -45t55 -16q57 0 81 39zM320 302v47q0 26 -20 40t-48 14q-29 0 -50.5 -14.5t-21.5 -40.5v-46h140z" />
<glyph unicode="&#x1e80;" horiz-adv-x="920" d="M552 756h-130l-117 142h164zM208 0l-205 708h152l101 -370l22 -165h9l24 166q21 69 46.5 141t43.5 130h119l86 -273l29 -171h9l19 171l103 371h151l-204 -708h-144l-91 273l-16 85h-8q-1 -6 -3 -14.5t-6 -27.5t-7 -32l-3 -12l-83 -272h-144z" />
<glyph unicode="&#x1e81;" horiz-adv-x="701" d="M442 566h-130l-117 142h164zM334 187l-41 -187h-130l-157 518h137l58 -209l16 -135h2l15 126l66 218h101l64 -217l15 -127h2l18 136l54 208h139l-153 -518h-130l-43 187l-16 141h-2z" />
<glyph unicode="&#x1e82;" horiz-adv-x="920" d="M639 898l-129 -142h-136l95 142h170zM208 0l-205 708h152l101 -370l22 -165h9l24 166q21 69 46.5 141t43.5 130h119l86 -273l29 -171h9l19 171l103 371h151l-204 -708h-144l-91 273l-16 85h-8q-1 -6 -3 -14.5t-6 -27.5t-7 -32l-3 -12l-83 -272h-144z" />
<glyph unicode="&#x1e83;" horiz-adv-x="701" d="M529 708l-129 -142h-136l95 142h170zM334 187l-41 -187h-130l-157 518h137l58 -209l16 -135h2l15 126l66 218h101l64 -217l15 -127h2l18 136l54 208h139l-153 -518h-130l-43 187l-16 141h-2z" />
<glyph unicode="&#x1e84;" horiz-adv-x="920" d="M275 830q0 33 22.5 55t54.5 22q31 0 54 -22.5t23 -54.5q0 -31 -23 -53t-54 -22q-32 0 -54.5 22t-22.5 53zM492 830q0 33 22 55t55 22t55.5 -22t22.5 -55q0 -32 -22.5 -53.5t-55.5 -21.5t-55 21.5t-22 53.5zM208 0l-205 708h152l101 -370l22 -165h9l24 166q21 69 46.5 141 t43.5 130h119l86 -273l29 -171h9l19 171l103 371h151l-204 -708h-144l-91 273l-16 85h-8q-1 -6 -3 -14.5t-6 -27.5t-7 -32l-3 -12l-83 -272h-144z" />
<glyph unicode="&#x1e85;" horiz-adv-x="701" d="M165 640q0 33 22.5 55t54.5 22q31 0 54 -22.5t23 -54.5q0 -31 -23 -53t-54 -22q-32 0 -54.5 22t-22.5 53zM382 640q0 33 22 55t55 22t55.5 -22t22.5 -55q0 -32 -22.5 -53.5t-55.5 -21.5t-55 21.5t-22 53.5zM334 187l-41 -187h-130l-157 518h137l58 -209l16 -135h2l15 126 l66 218h101l64 -217l15 -127h2l18 136l54 208h139l-153 -518h-130l-43 187l-16 141h-2z" />
<glyph unicode="&#x1ef2;" horiz-adv-x="628" d="M405 756h-130l-117 142h164zM387 0h-147v271l-246 437h169l150 -296l150 296h171l-247 -437v-271z" />
<glyph unicode="&#x1ef3;" horiz-adv-x="517" d="M348 566h-130l-117 142h164zM463 518v-514q0 -100 -59.5 -154t-155.5 -54q-112 0 -181 69l66 87q40 -38 99 -38q47 0 72.5 22t24.5 71q-51 -17 -88 -17q-87 0 -138.5 44.5t-51.5 126.5v357h134v-355q0 -61 80 -61q30 0 58 16v400h140z" />
<glyph unicode="&#x2013;" horiz-adv-x="576" d="M525 362v-140h-475v140h475z" />
<glyph unicode="&#x2014;" horiz-adv-x="899" d="M848 362v-140h-798v140h798z" />
<glyph unicode="&#x2018;" horiz-adv-x="283" d="M29 476l103 231h127l-62 -231h-168z" />
<glyph unicode="&#x2019;" horiz-adv-x="277" d="M263 706l-103 -231h-127l62 231h168z" />
<glyph unicode="&#x201a;" horiz-adv-x="270" d="M230 123l-107 -236h-122l67 236h162z" />
<glyph unicode="&#x201c;" horiz-adv-x="474" d="M29 476l103 231h127l-62 -231h-168zM230 476l89 231h127l-48 -231h-168z" />
<glyph unicode="&#x201d;" horiz-adv-x="466" d="M251 706l-89 -231h-127l48 231h168zM452 706l-103 -231h-127l62 231h168z" />
<glyph unicode="&#x201e;" horiz-adv-x="467" d="M230 123l-107 -236h-122l67 236h162zM428 123l-107 -236h-122l67 236h162z" />
<glyph unicode="&#x2020;" horiz-adv-x="507" d="M25 378v136h158v193h141v-193h158v-136h-158v-482h-141v482h-158z" />
<glyph unicode="&#x2021;" horiz-adv-x="549" d="M46 75v136h158v182h-158v135h158v181h141v-181h158v-135h-158v-182h158v-136h-158v-179h-141v179h-158z" />
<glyph unicode="&#x2022;" horiz-adv-x="413" d="M53 337q0 64 45 109t109 45t108.5 -45t44.5 -109t-44.5 -109.5t-108.5 -45.5t-109 45.5t-45 109.5z" />
<glyph unicode="&#x2026;" horiz-adv-x="716" d="M35 77q0 36 25 61t62 25q36 0 61 -25t25 -61q0 -37 -25 -62t-61 -25q-37 0 -62 25t-25 62zM272 77q0 36 24.5 61t60.5 25q37 0 62 -25t25 -61q0 -37 -25 -62t-62 -25q-36 0 -60.5 25t-24.5 62zM509 77q0 36 24.5 61t60.5 25q37 0 62 -25t25 -61q0 -37 -25 -62t-62 -25 q-36 0 -60.5 25t-24.5 62z" />
<glyph unicode="&#x2030;" horiz-adv-x="1064" d="M82 16l462 714l94 -57l-463 -710zM323 537q0 -82 -42 -131t-107 -49q-71 0 -109.5 46.5t-38.5 135.5q0 81 41.5 129.5t106.5 48.5q71 0 110 -47t39 -133zM219 537q0 76 -47 76q-48 0 -48 -75q0 -76 48 -76q47 0 47 75zM706 176q0 -82 -42 -131t-107 -49 q-71 0 -109.5 46.5t-38.5 135.5q0 81 41.5 129.5t106.5 48.5q71 0 110 -47t39 -133zM1040 176q0 -82 -42 -131t-107 -49q-71 0 -109.5 46.5t-38.5 135.5q0 81 41.5 129.5t106.5 48.5q71 0 110 -47t39 -133zM602 176q0 76 -47 76q-48 0 -48 -75q0 -76 48 -76q47 0 47 75z M936 176q0 76 -47 76q-48 0 -48 -75q0 -76 48 -76q47 0 47 75z" />
<glyph unicode="&#x2039;" horiz-adv-x="328" d="M178 518l119 -72l-107 -156q61 -93 107 -160l-120 -71l-153 230z" />
<glyph unicode="&#x203a;" horiz-adv-x="329" d="M153 60l-122 70l107 159q-18 27 -56 83t-50 74l120 72l153 -229z" />
<glyph unicode="&#x2044;" horiz-adv-x="537" d="M539 649l-423 -694l-116 71l423 693z" />
<glyph unicode="&#x20ac;" horiz-adv-x="650" d="M93 466v17q0 110 82.5 172.5t195.5 62.5q75 0 143.5 -39t102.5 -113l-118 -64q-22 41 -66.5 60.5t-87 15.5t-74.5 -29.5t-32 -65.5v-17h190l-20 -100h-170v-41h190l-19 -98h-171v-2q0 -52 51.5 -78t114.5 -9.5t91 71.5l127 -71q-44 -72 -113 -110t-142 -38 q-71 0 -132 25.5t-102 80t-41 129.5v2h-68l20 98h48v41h-68l20 100h48z" />
<glyph unicode="&#x2113;" horiz-adv-x="429" d="M329 144l77 -90q-66 -64 -135 -64q-128 0 -162 127l-2 -2l-41 -25l-48 115q70 60 82 72v210q0 129 46 185t114 56t104 -49t36 -127q0 -156 -163 -329v-17q1 -63 28.5 -79.5t63.5 17.5zM220 477v-80q30 29 46 83t14 95.5t-19 41.5q-10 0 -18.5 -12t-15.5 -45t-7 -83z" />
<glyph unicode="&#x2122;" horiz-adv-x="839" d="M126 298v280h-96v132h328v-132h-97v-280h-135zM382 300v410h114l87 -166l90 166h110v-410h-120l3 164l-57 -114h-49l-58 120l5 -170h-125z" />
<glyph unicode="&#x2126;" horiz-adv-x="779" d="M42 143h100q-95 78 -95 232q0 81 29 146.5t77.5 105.5t108.5 61.5t125 21.5q89 0 166.5 -36.5t129 -113.5t51.5 -181q0 -75 -26.5 -138.5t-74.5 -97.5h102v-143h-314v108q54 17 94 58.5t59.5 92.5t18.5 106.5t-22 101t-69 75t-115 29.5q-62 0 -107.5 -29.5t-67 -75.5 t-24 -101.5t15 -107t57.5 -93t95 -57.5v-107h-314v143z" />
<glyph unicode="&#x212e;" horiz-adv-x="820" d="M794 282h-544q0 -19 0.5 -56t0.5 -58q71 -68 163 -68q63 0 125.5 24t98.5 77l133 -1q-42 -72 -105 -120.5t-125.5 -68t-127.5 -19.5q-157 0 -268.5 100.5t-111.5 244.5q0 143 111.5 245t268.5 102q158 0 269.5 -102t111.5 -245v-55zM578 391v115q-74 67 -164 67 q-44 0 -87.5 -19t-76.5 -50v-113h328z" />
<glyph unicode="&#x2202;" horiz-adv-x="512" d="M139 559l-64 97q82 52 157 52q100 0 172.5 -86t72.5 -254q0 -170 -66.5 -274t-185.5 -104q-91 0 -140 64.5t-51 159.5q-4 109 62 181.5t149 72.5q53 0 94 -28q4 92 -58.5 130t-141.5 -11zM226 128h5q36 -7 67.5 46t35.5 126q-8 13 -33.5 22.5t-53.5 9.5q-29 0 -51 -34.5 t-22 -80.5q0 -41 14 -65t38 -24z" />
<glyph unicode="&#x2206;" horiz-adv-x="587" d="M234 688h119l210 -597v-91h-539v90zM291 467l-106 -328h212z" />
<glyph unicode="&#x220f;" horiz-adv-x="635" d="M525 -57h-140v614h-136v-614h-140v614h-83v138h584v-138h-85v-614z" />
<glyph unicode="&#x2211;" horiz-adv-x="546" d="M28 27l210 289l-200 291v101h464v-116h-282l186 -274l-196 -265h305v-124h-487v98z" />
<glyph unicode="&#x2212;" horiz-adv-x="612" d="M561 367v-138h-510v138h510z" />
<glyph unicode="&#x2215;" horiz-adv-x="527" d="M533 649l-422 -694l-116 71l422 693z" />
<glyph unicode="&#x2219;" horiz-adv-x="249" d="M39 307q0 37 24.5 62t62.5 25q36 0 60 -25t24 -62q0 -36 -24 -60.5t-60 -24.5q-38 0 -62.5 24.5t-24.5 60.5z" />
<glyph unicode="&#x221a;" horiz-adv-x="534" d="M222 -126l-119 367q-4 -1 -16.5 -5.5t-18.5 -6.5l-23 -2l-45 122l192 73l79 -317q19 108 57.5 343.5t55.5 331.5h146l-190 -906h-118z" />
<glyph unicode="&#x221e;" horiz-adv-x="688" d="M655 287v-1q0 -75 -50.5 -123t-118.5 -48q-93 0 -141 81q-53 -81 -147 -81q-69 0 -117 48.5t-48 119.5q0 75 48 124t122 49q88 0 143 -87q26 39 63.5 63.5t82.5 23.5q73 -2 118 -48.5t45 -120.5zM202 337q-35 0 -47.5 -25.5t1.5 -51.5t45 -26t75 53q-46 50 -74 50z M489 337q-28 0 -74 -50q40 -53 75 -53q31 0 45 26t1.5 51.5t-47.5 25.5z" />
<glyph unicode="&#x222b;" horiz-adv-x="369" d="M365 770l-31 -92q-16 10 -32.5 11t-29.5 -14t-11 -47l6 -593q0 -58 -25 -98t-63.5 -56t-85 -10.5t-89.5 32.5l32 99q22 -12 40 -14.5t31 8.5t13 40q0 82 -10 596q0 59 24.5 101t62 59t83 12t85.5 -34z" />
<glyph unicode="&#x2248;" horiz-adv-x="492" d="M375 465l78 -65q-21 -40 -48 -62t-58 -26.5t-61.5 2t-66.5 23.5q-31 18 -54.5 17t-54.5 -30l-70 60q57 92 128 97q28 1 86 -25q6 -3 19.5 -9l18 -8t15 -5t16.5 -1.5t15 4t18 10t19 18.5zM375 290l78 -65q-28 -53 -68 -76t-81 -18.5t-85 31.5q-33 22 -55.5 21t-53.5 -34 l-70 60q26 43 51 66t53 27t51 -1.5t59 -19.5q30 -12 42 -15t33.5 1t45.5 23z" />
<glyph unicode="&#x2260;" horiz-adv-x="534" d="M491 427v-126h-152l-18 -41h170v-126h-221l-45 -102l-115 57l18 45h-85v126h139l19 41h-158v126h210l41 97l120 -48l-21 -49h98z" />
<glyph unicode="&#x2264;" horiz-adv-x="486" d="M426 508l-183 -96q46 -24 70 -35l113 -57v-150l-382 200v86l382 202v-150zM40 160h403v-137h-403v137z" />
<glyph unicode="&#x2265;" horiz-adv-x="485" d="M442 452v-86l-382 -200v151l113 56l70 37l-183 94v151zM43 155h403v-136h-403v136z" />
<glyph unicode="&#x25ca;" horiz-adv-x="550" d="M220 -26l-200 363l206 365h101l203 -363l-206 -365h-104zM377 338l-103 199q-20 -40 -57 -109.5t-46 -87.5q23 -41 58.5 -108t45.5 -85z" />
<glyph unicode="&#x25fc;" horiz-adv-x="520" d="M0 520h520v-520h-520v520z" />
<glyph horiz-adv-x="249" d="M36 652q0 37 25.5 61.5t63.5 24.5t63 -24.5t25 -61.5t-25 -61t-63 -24t-63.5 24t-25.5 61zM196 517v-517h-142v517h142z" />
<glyph horiz-adv-x="691" d="M677 -136h-148v136h-367v-136h-148v270h56l192 574h161l197 -574h57v-270zM229 134h230l-79 270l-35 141h-3l-32 -140z" />
<glyph horiz-adv-x="622" d="M354 368l-41 177h-4l-43 -179l-111 -366h-157l240 708h144l245 -708h-157z" />
<glyph horiz-adv-x="513" d="M262 718q82 0 140.5 -43t58.5 -127q0 -56 -25 -96t-59 -58q43 -5 70.5 -39.5t27.5 -86.5v-99q0 -84 -64 -131t-149 -48q-108 0 -210 39v510q0 83 60.5 131t149.5 48zM259 593q-31 0 -49.5 -16t-18.5 -45v-122l64 21q66 22 66 102q0 60 -62 60zM259 332q-18 -3 -68 -20 v-188q29 -10 71 -10q31 0 52.5 17.5t20.5 48.5v96q0 30 -21.5 46t-54.5 10z" />
<glyph horiz-adv-x="438" d="M222 528q78 0 127 -41.5t49 -110.5q0 -70 -41 -108t-117 -56q-29 -8 -42.5 -12.5t-25.5 -15.5t-12 -28q0 -48 66 -48q62 0 116 47l74 -82q-70 -82 -201 -82q-79 0 -132.5 39.5t-53.5 115.5q0 72 39 109t110 57q57 14 70 29q10 12 10 26q0 38 -56 38q-43 0 -82 -26l-77 77 q68 72 179 72z" />
<glyph horiz-adv-x="505" d="M60 -134l64 83q39 -37 105 -37q86 0 86 100q-37 -22 -84 -22q-79 0 -134.5 44.5t-55.5 123.5v196q0 89 60 131.5t152 42.5q110 0 200 -44v-483q0 -99 -60.5 -152t-153.5 -53q-107 0 -179 70zM313 115v293q-26 13 -59 13t-56 -17t-23 -47v-197q4 -28 27.5 -43t55.5 -15 q31 0 55 13z" />
<glyph horiz-adv-x="746" d="M742 518l-198 -245l196 -273h-159l-125 191l-15 -14v-177h-136v177l-14 15l-127 -192h-158l196 273l-199 245h161l141 -189v379h136v-379l140 189h161z" />
<glyph horiz-adv-x="516" d="M464 518v-487q-96 -41 -192 -41q-95 0 -158.5 46t-63.5 141v341h138v-341q0 -30 22 -46.5t52 -17.5q36 0 63 10v395h139z" />
<glyph horiz-adv-x="517" d="M309 735h115q-2 -75 -49 -117.5t-110 -42.5q-64 0 -111.5 42t-49.5 118h116q2 -20 15 -31t30 -11q16 0 29 11t15 31zM465 518v-487q-98 -41 -196 -41q-92 0 -155.5 47t-63.5 140v341h139v-340q0 -29 21.5 -46.5t49.5 -17.5q37 0 66 10v394h139z" />
<glyph horiz-adv-x="511" d="M193 322l150 196h162l-206 -250q31 -41 102.5 -132.5t104.5 -135.5h-161l-143 189l-9 -8v-181h-139v707h139v-385z" />
<glyph horiz-adv-x="496" d="M272 263l-24 131h-2l-24 -131l-71 -263h-146l162 518h162l162 -518h-151z" />
<glyph horiz-adv-x="515" d="M53 0v482q100 43 193 43t156.5 -46.5t63.5 -140.5v-338h-138v337q0 31 -21 47.5t-51 16.5q-31 0 -65 -12v-389h-138z" />
<glyph horiz-adv-x="753" d="M52 0v464q34 30 84.5 47.5t100.5 16.5q101 -2 139 -64q52 64 134 64q78 0 135.5 -46.5t57.5 -129.5v-352h-138v357q0 22 -18 34t-43 12t-43.5 -12t-18.5 -33v-358h-133v354q0 22 -21.5 35.5t-49.5 13.5q-33 -2 -50 -20v-383h-136z" />
<glyph horiz-adv-x="548" d="M516 -3l-11 -128h-120l4 149q-64 -28 -121 -28q-93 0 -155.5 47t-62.5 141v340h140v-339q0 -30 19.5 -47t48.5 -18q38 0 64 9v395h139v-380h55v-141z" />
<glyph horiz-adv-x="780" d="M728 518v-478q-75 -50 -180 -50q-101 0 -157 56q-25 -26 -64.5 -41t-78.5 -15q-83 0 -140.5 48t-57.5 132v348h140v-350q0 -53 64 -53q24 1 45.5 13.5t21.5 32.5v357h139v-358q0 -22 20.5 -34t48.5 -12q42 0 60 15v389h139z" />
<glyph horiz-adv-x="815" d="M784 -9l-13 -121l-123 -1l4 144q-56 -23 -104 -23q-101 0 -157 56q-25 -26 -64.5 -41t-78.5 -15q-83 0 -140.5 48t-57.5 132v348h140v-350q0 -53 64 -53q24 1 45.5 13.5t21.5 32.5v357h139v-358q0 -22 20.5 -34t48.5 -12q42 0 60 12v392h139v-380h56v-147z" />
<glyph horiz-adv-x="734" d="M273 327v23q3 83 65.5 130t145.5 48q85 -1 147.5 -49.5t62.5 -135.5v-173q0 -85 -62.5 -132.5t-147.5 -47.5t-148 47.5t-63 132.5v42h-82v-212h-138v708h138v-381h82zM484 402q-28 0 -50 -15t-22 -42v-171q1 -27 22 -42.5t50 -15.5q28 0 49 15.5t22 42.5v171 q0 27 -21.5 42t-49.5 15z" />
</font>
</defs>
</svg>
